<svg width="100%" height="100%" viewBox="0 0 22 22" fill="none" xmlns="http://www.w3.org/2000/svg">
  <path
    d="M11.8531 0.0012207C13.0622 0.004445 13.6759 0.0108936 14.2058 0.0259403L14.4143 0.0334636C14.655 0.0420618 14.8926 0.0528094 15.1795 0.0657066C16.3231 0.119445 17.1034 0.300006 17.788 0.565473C18.4973 0.838463 19.0949 1.20818 19.6925 1.80468C20.2392 2.34177 20.6621 2.99173 20.9317 3.70916C21.1971 4.39379 21.3777 5.17407 21.4314 6.31869C21.4443 6.60458 21.4551 6.84211 21.4637 7.08393L21.4701 7.29243C21.4863 7.82122 21.4927 8.43491 21.4949 9.64402L21.4959 10.4458V11.8537C21.4985 12.6377 21.4903 13.4216 21.4712 14.2053L21.4648 14.4138C21.4562 14.6557 21.4454 14.8932 21.4325 15.1791C21.3788 16.3237 21.1961 17.1029 20.9317 17.7886C20.6621 18.506 20.2392 19.156 19.6925 19.6931C19.1554 20.2398 18.5054 20.6627 17.788 20.9323C17.1034 21.1978 16.3231 21.3783 15.1795 21.4321L14.4143 21.4643L14.2058 21.4707C13.6759 21.4858 13.0622 21.4933 11.8531 21.4955L11.0514 21.4965H9.64448C8.86019 21.4993 8.07589 21.4911 7.29182 21.4718L7.08332 21.4654C6.82818 21.4557 6.5731 21.4446 6.31808 21.4321C5.17453 21.3783 4.39425 21.1978 3.70855 20.9323C2.9915 20.6626 2.34193 20.2397 1.80514 19.6931C1.25803 19.1561 0.834747 18.5061 0.564864 17.7886C0.299396 17.104 0.118836 16.3237 0.0650972 15.1791L0.0328543 14.4138L0.0274806 14.2053C0.00766838 13.4216 -0.00128896 12.6377 0.000611324 11.8537V9.64402C-0.00236352 8.86009 0.00551894 8.07615 0.0242563 7.29243L0.0317796 7.08393C0.0403777 6.84211 0.0511253 6.60458 0.0640225 6.31869C0.117761 5.17407 0.298321 4.39486 0.563789 3.70916C0.834301 2.99143 1.25833 2.34145 1.80622 1.80468C2.34269 1.25821 2.99189 0.835318 3.70855 0.565473C4.39425 0.300006 5.17346 0.119445 6.31808 0.0657066C6.60397 0.0528094 6.84257 0.0420618 7.08332 0.0334636L7.29182 0.027015C8.07553 0.0079194 8.85947 -0.000321261 9.64341 0.00229539L11.8531 0.0012207ZM10.7483 5.37505C9.32304 5.37505 7.95619 5.94122 6.9484 6.94901C5.94061 7.9568 5.37444 9.32365 5.37444 10.7489C5.37444 12.1741 5.94061 13.541 6.9484 14.5488C7.95619 15.5565 9.32304 16.1227 10.7483 16.1227C12.1735 16.1227 13.5404 15.5565 14.5481 14.5488C15.5559 13.541 16.1221 12.1741 16.1221 10.7489C16.1221 9.32365 15.5559 7.9568 14.5481 6.94901C13.5404 5.94122 12.1735 5.37505 10.7483 5.37505ZM10.7483 7.52458C11.1717 7.52451 11.591 7.60784 11.9822 7.76981C12.3734 7.93178 12.7289 8.16922 13.0283 8.46858C13.3278 8.76793 13.5654 9.12334 13.7275 9.5145C13.8896 9.90566 13.973 10.3249 13.9731 10.7483C13.9732 11.1718 13.8898 11.5911 13.7279 11.9823C13.5659 12.3735 13.3285 12.729 13.0291 13.0284C12.7298 13.3279 12.3744 13.5654 11.9832 13.7275C11.592 13.8896 11.1728 13.9731 10.7493 13.9732C9.89421 13.9732 9.07409 13.6335 8.46942 13.0288C7.86475 12.4241 7.52505 11.604 7.52505 10.7489C7.52505 9.89374 7.86475 9.07363 8.46942 8.46896C9.07409 7.86428 9.89421 7.52458 10.7493 7.52458M16.3919 3.7629C16.0356 3.7629 15.6938 3.90444 15.4419 4.15639C15.1899 4.40834 15.0484 4.75005 15.0484 5.10636C15.0484 5.46267 15.1899 5.80438 15.4419 6.05633C15.6938 6.30827 16.0356 6.44982 16.3919 6.44982C16.7482 6.44982 17.0899 6.30827 17.3418 6.05633C17.5938 5.80438 17.7353 5.46267 17.7353 5.10636C17.7353 4.75005 17.5938 4.40834 17.3418 4.15639C17.0899 3.90444 16.7482 3.7629 16.3919 3.7629Z"
    fill="currentColor" />
</svg>