<svg width="100%" height="100%" viewBox="0 0 21 22" fill="none" xmlns="http://www.w3.org/2000/svg">
  <path fill-rule="evenodd" clip-rule="evenodd"
    d="M14.82 21.228C16.459 21.228 18.0309 20.5769 19.1899 19.4179C20.3488 18.2589 20.9999 16.6871 20.9999 15.048V6.44992C20.9999 4.81091 20.3488 3.23903 19.1899 2.08007C18.0309 0.921114 16.459 0.27002 14.82 0.27002H6.22189C4.58288 0.27002 3.011 0.921114 1.85204 2.08007C0.693087 3.23903 0.0419922 4.81091 0.0419922 6.44992V15.048C0.0419922 16.6871 0.693087 18.2589 1.85204 19.4179C3.011 20.5769 4.58288 21.228 6.22189 21.228H14.82ZM12.3599 4.04567C12.2991 3.86451 12.1759 3.71085 12.0123 3.6121C11.8486 3.51335 11.6553 3.47594 11.4666 3.50654C11.278 3.53714 11.1064 3.63376 10.9824 3.77916C10.8584 3.92457 10.7901 4.10929 10.7896 4.30039V13.9733C10.7896 14.4516 10.6478 14.9191 10.3821 15.3168C10.1164 15.7144 9.73871 16.0244 9.29684 16.2074C8.85497 16.3905 8.36874 16.4383 7.89965 16.345C7.43056 16.2517 6.99968 16.0214 6.66148 15.6832C6.32329 15.345 6.09298 14.9141 5.99967 14.4451C5.90636 13.976 5.95425 13.4897 6.13728 13.0479C6.32031 12.606 6.63026 12.2283 7.02793 11.9626C7.42561 11.6969 7.89315 11.5551 8.37143 11.5551C8.58521 11.5551 8.79024 11.4701 8.94141 11.319C9.09258 11.1678 9.1775 10.9628 9.1775 10.749C9.1775 10.5352 9.09258 10.3302 8.94141 10.179C8.79024 10.0278 8.58521 9.94291 8.37143 9.94291C7.57429 9.94291 6.79506 10.1793 6.13227 10.6222C5.46948 11.065 4.9529 11.6945 4.64785 12.4309C4.3428 13.1674 4.26298 13.9778 4.4185 14.7596C4.57401 15.5414 4.95787 16.2595 5.52152 16.8232C6.08518 17.3868 6.80332 17.7707 7.58514 17.9262C8.36696 18.0817 9.17733 18.0019 9.91378 17.6969C10.6502 17.3918 11.2797 16.8752 11.7226 16.2124C12.1654 15.5496 12.4018 14.7704 12.4018 13.9733V6.94216C13.2261 7.7074 14.3869 8.33076 15.8948 8.33076C16.1086 8.33076 16.3136 8.24584 16.4648 8.09467C16.6159 7.9435 16.7009 7.73847 16.7009 7.52469C16.7009 7.3109 16.6159 7.10588 16.4648 6.95471C16.3136 6.80354 16.1086 6.71861 15.8948 6.71861C14.8501 6.71861 14.0559 6.28871 13.4669 5.7309C12.865 5.15913 12.5018 4.4702 12.3599 4.04567Z"
    fill="currentColor" />
</svg>