<svg width="937" height="343" viewBox="0 0 937 343" fill="none" xmlns="http://www.w3.org/2000/svg">
<g clip-path="url(#clip0_65_60)">
<path d="M761.734 57.394L678.063 114.274C679.85 113.06 681.608 111.835 683.356 110.581C685.104 109.327 686.822 108.073 688.52 106.789C690.219 105.505 691.898 104.212 693.547 102.898C695.196 101.585 696.835 100.262 698.445 98.9088C700.874 96.8746 703.244 94.8107 705.565 92.7172C707.876 90.6236 710.137 88.5005 712.339 86.3379C714.531 84.1851 716.674 82.0126 718.758 79.8005C720.832 77.5984 722.856 75.3666 724.821 73.1052C724.989 72.8979 725.167 72.7004 725.345 72.5029C725.522 72.3054 725.69 72.098 725.868 71.9005C726.046 71.703 726.214 71.4956 726.382 71.2981C726.549 71.1006 726.727 70.8932 726.895 70.6859L825.103 0C824.895 0.266627 824.678 0.523379 824.471 0.790007C824.263 1.05663 824.036 1.31339 823.829 1.58001C823.621 1.84664 823.394 2.10339 823.177 2.37002C822.96 2.63665 822.743 2.8934 822.525 3.16003C820.057 6.1028 817.509 9.00608 814.882 11.8797C812.236 14.7632 809.51 17.6171 806.696 20.4414C803.871 23.2756 800.958 26.0603 797.966 28.8155C794.954 31.5805 791.873 34.306 788.693 36.9921C786.59 38.7696 784.447 40.5273 782.274 42.2654C780.092 44.0132 777.88 45.7315 775.638 47.43C773.397 49.1285 771.106 50.8172 768.795 52.4762C766.474 54.1451 764.124 55.7843 761.744 57.4039L761.734 57.394Z" fill="url(#paint0_linear_65_60)"/>
<mask id="mask0_65_60" style="mask-type:luminance" maskUnits="userSpaceOnUse" x="678" y="0" width="148" height="115">
<path d="M761.734 57.394L678.063 114.274C679.85 113.06 681.608 111.835 683.356 110.581C685.104 109.327 686.822 108.073 688.52 106.789C690.219 105.505 691.898 104.212 693.547 102.898C695.196 101.585 696.835 100.262 698.445 98.9088C700.874 96.8746 703.244 94.8107 705.565 92.7172C707.876 90.6236 710.137 88.5005 712.339 86.3379C714.531 84.1851 716.674 82.0126 718.758 79.8005C720.832 77.5984 722.856 75.3666 724.821 73.1052C724.989 72.8979 725.167 72.7004 725.345 72.5029C725.522 72.3054 725.69 72.098 725.868 71.9005C726.046 71.703 726.214 71.4956 726.382 71.2981C726.549 71.1006 726.727 70.8932 726.895 70.6859L825.103 0C824.895 0.266627 824.678 0.523379 824.471 0.790007C824.263 1.05663 824.036 1.31339 823.829 1.58001C823.621 1.84664 823.394 2.10339 823.177 2.37002C822.96 2.63665 822.743 2.8934 822.525 3.16003C820.057 6.1028 817.509 9.00608 814.882 11.8797C812.236 14.7632 809.51 17.6171 806.696 20.4414C803.871 23.2756 800.958 26.0603 797.966 28.8155C794.954 31.5805 791.873 34.306 788.693 36.9921C786.59 38.7696 784.447 40.5273 782.274 42.2654C780.092 44.0132 777.88 45.7315 775.638 47.43C773.397 49.1285 771.106 50.8172 768.795 52.4762C766.474 54.1451 764.124 55.7843 761.744 57.4039L761.734 57.394Z" fill="white"/>
</mask>
<g mask="url(#mask0_65_60)">
<path d="M761.734 57.394L678.063 114.274C679.85 113.06 681.608 111.835 683.356 110.581C685.104 109.327 686.822 108.073 688.52 106.789C690.219 105.505 691.898 104.212 693.547 102.898C695.196 101.585 696.835 100.262 698.445 98.9088C700.874 96.8746 703.244 94.8107 705.565 92.7172C707.876 90.6236 710.137 88.5005 712.339 86.3379C714.531 84.1851 716.674 82.0126 718.758 79.8005C720.832 77.5984 722.856 75.3666 724.821 73.1052C724.989 72.8979 725.167 72.7004 725.345 72.5029C725.522 72.3054 725.69 72.098 725.868 71.9005C726.046 71.703 726.214 71.4956 726.382 71.2981C726.549 71.1006 726.727 70.8932 726.895 70.6859L825.103 0C824.895 0.266627 824.678 0.523379 824.471 0.790007C824.263 1.05663 824.036 1.31339 823.829 1.58001C823.621 1.84664 823.394 2.10339 823.177 2.37002C822.96 2.63665 822.743 2.8934 822.525 3.16003C820.057 6.1028 817.509 9.00608 814.882 11.8797C812.236 14.7632 809.51 17.6171 806.696 20.4414C803.871 23.2756 800.958 26.0603 797.966 28.8155C794.954 31.5805 791.873 34.306 788.693 36.9921C786.59 38.7696 784.447 40.5273 782.274 42.2654C780.092 44.0132 777.88 45.7315 775.638 47.43C773.397 49.1285 771.106 50.8172 768.795 52.4762C766.474 54.1451 764.124 55.7843 761.744 57.4039" fill="url(#paint1_linear_65_60)"/>
</g>
<path d="M811.436 341.421L697.754 314.284L689.212 262.183L792.821 263.734L811.436 341.421Z" fill="url(#paint2_linear_65_60)"/>
<path d="M744.018 299.255L654.451 286.259L613.243 261.818L681.292 263.191L744.018 299.255Z" fill="url(#paint3_linear_65_60)"/>
<path d="M571.106 339.318L536.671 313.089L529.216 165.013L555.493 126.361L571.106 339.318Z" fill="url(#paint4_linear_65_60)"/>
<path d="M825.103 -1.26129e-05L936.859 342.517L811.436 341.421L792.821 263.734L744.018 299.255L681.302 263.191L693.507 340.384L571.116 339.308L555.513 126.352C578.937 124.387 601.748 120.841 623.76 115.825C645.643 110.838 666.608 104.409 686.496 96.6474C706.177 88.9646 724.703 80.0178 741.925 69.9254C758.89 59.9812 774.532 48.9508 788.713 36.9822C791.883 34.2961 794.974 31.5706 797.986 28.8056C800.978 26.0505 803.891 23.2558 806.715 20.4315C809.53 17.6171 812.255 14.7632 814.902 11.8698C817.538 8.99619 820.086 6.08304 822.545 3.15014C822.762 2.88351 822.98 2.62676 823.197 2.36013C823.414 2.0935 823.631 1.83675 823.849 1.57013C824.066 1.3035 824.283 1.04675 824.49 0.780119C824.698 0.513492 824.915 0.25674 825.122 -0.0098877L825.103 -1.26129e-05Z" fill="black"/>
<path d="M183.084 227.749L269.057 237.209L258.233 311.016L160.164 335.713L183.084 227.749Z" fill="url(#paint5_linear_65_60)"/>
<path d="M362.248 126.766L392.149 165.032L383.657 311.954L344.571 337.333L362.248 126.766Z" fill="url(#paint6_linear_65_60)"/>
<path d="M252.773 118.708C225.606 100.805 198.44 82.9112 171.274 65.0077C164.707 60.6824 158.396 56.1695 152.353 51.4887C146.369 46.8474 140.641 42.0481 135.2 37.0809C129.808 32.173 124.693 27.1071 119.854 21.9029C115.065 16.758 110.561 11.4748 106.335 6.06329L201.797 73.2632C205.254 77.4799 208.917 81.5978 212.759 85.5972C216.63 89.6263 220.688 93.5368 224.925 97.3288C229.191 101.141 233.645 104.834 238.276 108.389C242.937 111.964 247.766 115.41 252.763 118.698L252.773 118.708Z" fill="url(#paint7_linear_65_60)"/>
<mask id="mask1_65_60" style="mask-type:luminance" maskUnits="userSpaceOnUse" x="106" y="6" width="147" height="113">
<path d="M252.773 118.708C225.606 100.805 198.44 82.9112 171.274 65.0077C164.707 60.6824 158.396 56.1695 152.353 51.4887C146.369 46.8474 140.641 42.0481 135.2 37.0809C129.808 32.173 124.693 27.1071 119.854 21.9029C115.065 16.758 110.561 11.4748 106.335 6.06329L201.797 73.2632C205.254 77.4799 208.917 81.5978 212.759 85.5972C216.63 89.6263 220.688 93.5368 224.925 97.3288C229.191 101.141 233.645 104.834 238.276 108.389C242.937 111.964 247.766 115.41 252.763 118.698L252.773 118.708Z" fill="white"/>
</mask>
<g mask="url(#mask1_65_60)">
<path d="M106.345 6.07312L201.807 73.2731C203.052 74.784 204.316 76.285 205.599 77.7662C206.893 79.2574 208.206 80.7288 209.549 82.1903C210.892 83.6518 212.265 85.1034 213.657 86.5353C215.05 87.9672 216.482 89.3991 217.923 90.8013L126.332 28.6179C124.515 26.8009 122.728 24.9642 120.98 23.1076C119.242 21.261 117.533 19.3946 115.864 17.5085C114.205 15.6322 112.576 13.7362 110.986 11.8303C109.406 9.9244 107.856 8.00864 106.345 6.07312Z" fill="url(#paint8_linear_65_60)"/>
<path d="M126.332 28.618L217.933 90.8014C220.521 93.3196 223.187 95.7982 225.932 98.2176C228.677 100.637 231.512 103.027 234.415 105.357C237.318 107.688 240.31 109.969 243.372 112.191C246.443 114.423 249.583 116.595 252.782 118.708L171.283 65.0077C167.067 62.2328 162.959 59.3789 158.949 56.446C154.97 53.5329 151.099 50.5605 147.336 47.5091C143.604 44.4774 139.97 41.3865 136.464 38.2166C132.968 35.0763 129.591 31.8768 126.332 28.6082" fill="url(#paint9_linear_65_60)"/>
</g>
<path d="M106.345 6.07306C118.629 21.8139 133.333 36.4784 150.259 49.8394C167.63 63.5559 187.241 75.8109 208.848 86.3674C230.899 97.1411 254.886 106.058 280.472 112.882C306.424 119.795 333.817 124.505 362.258 126.756L344.581 337.323L183.094 227.739L160.174 335.713L0.0098877 334.311L106.345 6.07306Z" fill="black"/>
<path d="M513.781 130.213L521.967 338.883L392.821 337.748L403.279 130.42C407.752 130.756 412.265 131.042 416.808 131.289C421.36 131.536 425.932 131.743 430.534 131.901C435.136 132.069 439.767 132.188 444.399 132.257C449.04 132.336 453.691 132.366 458.352 132.356C463.013 132.346 467.674 132.296 472.325 132.198C476.976 132.099 481.628 131.971 486.259 131.783C490.891 131.595 495.502 131.378 500.094 131.111C504.686 130.845 509.248 130.539 513.771 130.183L513.781 130.213Z" fill="black"/>
</g>
<defs>
<linearGradient id="paint0_linear_65_60" x1="678.073" y1="57.1372" x2="825.103" y2="57.1372" gradientUnits="userSpaceOnUse">
<stop stop-color="#005FFF"/>
<stop offset="0.14" stop-color="#DEFDC4"/>
<stop offset="0.23" stop-color="#8CEAB9"/>
<stop offset="0.4" stop-color="#12D682"/>
<stop offset="0.63" stop-color="#51F562"/>
<stop offset="0.81" stop-color="#EAFC90"/>
<stop offset="0.96" stop-color="#015E45"/>
</linearGradient>
<linearGradient id="paint1_linear_65_60" x1="678.073" y1="57.1372" x2="825.103" y2="57.1372" gradientUnits="userSpaceOnUse">
<stop stop-color="#005FFF"/>
<stop offset="0.14" stop-color="#DEFDC4"/>
<stop offset="0.23" stop-color="#8CEAB9"/>
<stop offset="0.4" stop-color="#12D682"/>
<stop offset="0.63" stop-color="#51F562"/>
<stop offset="0.81" stop-color="#EAFC90"/>
<stop offset="0.96" stop-color="#015E45"/>
</linearGradient>
<linearGradient id="paint2_linear_65_60" x1="749.568" y1="279.613" x2="751.543" y2="337.876" gradientUnits="userSpaceOnUse">
<stop stop-color="#005FFF"/>
<stop offset="0.14" stop-color="#DEFDC4"/>
<stop offset="0.23" stop-color="#8CEAB9"/>
<stop offset="0.4" stop-color="#12D682"/>
<stop offset="0.63" stop-color="#51F562"/>
<stop offset="0.81" stop-color="#EAFC90"/>
<stop offset="0.96" stop-color="#015E45"/>
</linearGradient>
<linearGradient id="paint3_linear_65_60" x1="671.18" y1="263.615" x2="692.905" y2="312.991" gradientUnits="userSpaceOnUse">
<stop stop-color="#005FFF"/>
<stop offset="0.14" stop-color="#DEFDC4"/>
<stop offset="0.23" stop-color="#8CEAB9"/>
<stop offset="0.4" stop-color="#12D682"/>
<stop offset="0.63" stop-color="#51F562"/>
<stop offset="0.81" stop-color="#EAFC90"/>
<stop offset="0.96" stop-color="#015E45"/>
</linearGradient>
<linearGradient id="paint4_linear_65_60" x1="546.685" y1="150.23" x2="553.597" y2="352.669" gradientUnits="userSpaceOnUse">
<stop stop-color="#005FFF"/>
<stop offset="0.14" stop-color="#DEFDC4"/>
<stop offset="0.23" stop-color="#8CEAB9"/>
<stop offset="0.4" stop-color="#12D682"/>
<stop offset="0.63" stop-color="#51F562"/>
<stop offset="0.81" stop-color="#EAFC90"/>
<stop offset="0.96" stop-color="#015E45"/>
</linearGradient>
<linearGradient id="paint5_linear_65_60" x1="226.92" y1="253.632" x2="173.594" y2="387.933" gradientUnits="userSpaceOnUse">
<stop stop-color="#005FFF"/>
<stop offset="0.14" stop-color="#DEFDC4"/>
<stop offset="0.23" stop-color="#8CEAB9"/>
<stop offset="0.4" stop-color="#12D682"/>
<stop offset="0.63" stop-color="#51F562"/>
<stop offset="0.81" stop-color="#EAFC90"/>
<stop offset="0.96" stop-color="#015E45"/>
</linearGradient>
<linearGradient id="paint6_linear_65_60" x1="371.254" y1="157.192" x2="365.329" y2="349.756" gradientUnits="userSpaceOnUse">
<stop stop-color="#005FFF"/>
<stop offset="0.14" stop-color="#DEFDC4"/>
<stop offset="0.23" stop-color="#8CEAB9"/>
<stop offset="0.4" stop-color="#12D682"/>
<stop offset="0.63" stop-color="#51F562"/>
<stop offset="0.81" stop-color="#EAFC90"/>
<stop offset="0.96" stop-color="#015E45"/>
</linearGradient>
<linearGradient id="paint7_linear_65_60" x1="106.345" y1="62.3908" x2="252.773" y2="62.3908" gradientUnits="userSpaceOnUse">
<stop stop-color="#005FFF"/>
<stop offset="0.14" stop-color="#DEFDC4"/>
<stop offset="0.23" stop-color="#8CEAB9"/>
<stop offset="0.4" stop-color="#12D682"/>
<stop offset="0.63" stop-color="#51F562"/>
<stop offset="0.81" stop-color="#EAFC90"/>
<stop offset="0.96" stop-color="#015E45"/>
</linearGradient>
<linearGradient id="paint8_linear_65_60" x1="106.345" y1="48.4372" x2="217.933" y2="48.4372" gradientUnits="userSpaceOnUse">
<stop stop-color="#005FFF"/>
<stop offset="0.14" stop-color="#DEFDC4"/>
<stop offset="0.23" stop-color="#8CEAB9"/>
<stop offset="0.4" stop-color="#12D682"/>
<stop offset="0.63" stop-color="#51F562"/>
<stop offset="0.81" stop-color="#EAFC90"/>
<stop offset="0.96" stop-color="#015E45"/>
</linearGradient>
<linearGradient id="paint9_linear_65_60" x1="126.332" y1="73.6682" x2="252.773" y2="73.6682" gradientUnits="userSpaceOnUse">
<stop stop-color="#005FFF"/>
<stop offset="0.14" stop-color="#DEFDC4"/>
<stop offset="0.23" stop-color="#8CEAB9"/>
<stop offset="0.4" stop-color="#12D682"/>
<stop offset="0.63" stop-color="#51F562"/>
<stop offset="0.81" stop-color="#EAFC90"/>
<stop offset="0.96" stop-color="#015E45"/>
</linearGradient>
<clipPath id="clip0_65_60">
<rect width="936.859" height="342.517" fill="white"/>
</clipPath>
</defs>
</svg>
