<svg width="351" height="61" viewBox="0 0 351 61" fill="none" xmlns="http://www.w3.org/2000/svg">
<path d="M40.3739 59.7181L26.8508 46.062L12.2622 31.3258V59.7181H0V14.4929H14.0699L35.3203 37.0539L39.0973 41.067V14.4929H51.3561V59.7181H40.3739Z" fill="url(#paint0_linear_374_35)"/>
<path d="M90.7484 59.7182L88.525 54.3929H70.0896L67.8658 59.7182H54.7875L73.6669 14.4919H84.9057L103.785 59.7182H90.7484ZM73.6795 45.7939H84.9346L79.3072 32.3091L73.6795 45.7939Z" fill="url(#paint1_linear_374_35)"/>
<path d="M120.752 60.6901C115.765 60.6901 111.542 59.3472 108.541 56.8067C105.67 54.3761 104.059 50.9507 103.872 46.884H117.037C117.161 49.0479 118.858 50.797 121.001 50.9163C121.076 50.9205 121.154 50.9213 121.232 50.9213H121.251C123.559 50.9102 125.437 48.9851 125.437 46.6299C125.437 44.7471 124.257 43.1036 122.498 42.5379C121.917 42.3456 121.246 42.1454 120.325 41.8892C119.832 41.7542 119.395 41.633 118.978 41.5088L118.947 41.4996L118.915 41.4917C113.626 40.1861 109.503 37.8771 106.992 34.8143C104.565 31.8545 103.728 28.2465 104.571 24.3803L104.577 24.3553L104.581 24.3301C105.977 16.5284 113.952 13.7602 120.357 13.7602L120.608 13.757C125.305 13.7586 129.301 15.029 132.163 17.4315C134.899 19.7265 136.464 22.9593 136.702 26.7962H125.329C125.072 25.6606 124.368 24.6677 123.362 24.0679C123.31 24.0316 123.254 23.999 123.197 23.9706C122.975 23.8477 122.737 23.7457 122.488 23.6677C122.082 23.5366 121.659 23.4701 121.232 23.4701C119.503 23.4701 117.971 24.5279 117.33 26.1648C117.13 26.6795 117.029 27.2158 117.029 27.7623C117.029 27.9457 117.041 28.1293 117.066 28.3238C117.25 29.7423 118.124 30.9796 119.369 31.611L119.449 31.6824L119.68 31.7523C119.83 31.8133 119.983 31.8663 120.135 31.9102C121.116 32.2463 122.146 32.5179 122.976 32.7371C123.63 32.91 124.166 33.0555 124.652 33.2019L124.651 33.1995C129.714 34.8629 133.216 36.8973 135.358 39.4181C137.424 41.8498 138.279 44.8509 137.973 48.5923C137.642 52.6643 135.75 55.7986 132.351 57.9087C129.465 59.7003 125.522 60.6872 121.248 60.6872H121.22C121.087 60.6903 120.937 60.6903 120.787 60.6903H120.753L120.752 60.6901Z" fill="url(#paint2_linear_374_35)"/>
<path d="M165.126 60.5182C164.937 60.5182 164.746 60.5153 164.556 60.5101L164.519 60.509L164.482 60.5101C164.306 60.5145 164.132 60.5169 163.956 60.5169H163.954C156.981 60.5161 150.147 56.8973 145.674 50.8361C143.545 47.9507 142.057 44.6325 141.371 41.2399C140.639 37.6238 140.806 34.0471 141.867 30.6083L142.408 28.8519H142.385C143.852 24.5807 146.648 20.876 150.547 18.061C154.755 15.0234 159.879 13.3505 164.974 13.3505C168.847 13.3505 172.604 14.3395 175.841 16.2102L175.87 16.2263C180.97 19.0116 184.9 23.6579 186.825 29.1175H172.921C170.655 26.7557 167.52 25.3618 164.414 25.3618C161.281 25.3618 158.354 26.7076 155.95 29.2539L155.924 29.2809L155.9 29.3096C152.799 32.9788 152.103 37.4141 153.99 41.4785C155.936 45.6693 160.25 48.4851 164.725 48.4851H164.726C167.755 48.4848 170.61 47.2271 172.982 44.8479L173.012 44.8172C173.012 44.8172 173.058 44.7652 173.062 44.7607H186.864C183.566 53.8566 174.523 60.5185 165.127 60.5185L165.126 60.5182Z" fill="url(#paint3_linear_374_35)"/>
<path d="M211.819 60.6796C199.983 60.6796 190.354 51.05 190.354 39.214V14.3965H202.654V39.3304C202.654 44.3821 206.766 48.492 211.819 48.492C216.873 48.492 220.981 44.3821 220.981 39.3304V14.3965H233.281V39.4906C233.21 45.1698 230.946 50.4943 226.908 54.4846C222.866 58.4794 217.508 60.6796 211.819 60.6796Z" fill="url(#paint4_linear_374_35)"/>
<path d="M244.949 59.7181V26.9002H237.823V14.4913H264.261V26.9002H257.136V59.7181H244.949Z" fill="url(#paint5_linear_374_35)"/>
<path d="M281.658 59.7181V14.4934L293.823 14.4987V59.7181H281.658Z" fill="url(#paint6_linear_374_35)"/>
<path d="M287.74 9.57701L280.392 13.1395V9.17948L287.74 4.54626L295.089 9.17974V13.1403L287.74 9.57701Z" fill="url(#paint7_linear_374_35)"/>
<path d="M339.645 59.7181L326.122 46.062L311.533 31.3258V59.7181H299.271V14.4929H313.341L334.591 37.0539L338.368 41.067V14.4929H350.627V59.7181H339.645Z" fill="url(#paint8_linear_374_35)"/>
<path d="M76.0659 8.85366L73.6794 14.4921L87.4343 10.1663L92.6845 0C90.3668 2.24041 86.7415 5.1411 81.6805 7.16527C79.6626 7.97242 77.7612 8.50263 76.0659 8.85366Z" fill="url(#paint9_linear_374_35)"/>
<defs>
<linearGradient id="paint0_linear_374_35" x1="25.678" y1="14.4929" x2="25.7365" y2="82.7502" gradientUnits="userSpaceOnUse">
<stop stop-color="#8CFF6D"/>
<stop offset="1" stop-color="#D3FDB1"/>
</linearGradient>
<linearGradient id="paint1_linear_374_35" x1="79.2863" y1="14.4919" x2="79.3476" y2="82.7508" gradientUnits="userSpaceOnUse">
<stop stop-color="#8CFF6D"/>
<stop offset="1" stop-color="#D3FDB1"/>
</linearGradient>
<linearGradient id="paint2_linear_374_35" x1="120.953" y1="13.757" x2="121.047" y2="84.5922" gradientUnits="userSpaceOnUse">
<stop stop-color="#8CFF6D"/>
<stop offset="1" stop-color="#D3FDB1"/>
</linearGradient>
<linearGradient id="paint3_linear_374_35" x1="163.894" y1="13.3505" x2="163.965" y2="84.5399" gradientUnits="userSpaceOnUse">
<stop stop-color="#8CFF6D"/>
<stop offset="1" stop-color="#D3FDB1"/>
</linearGradient>
<linearGradient id="paint4_linear_374_35" x1="211.818" y1="14.3965" x2="211.891" y2="84.2503" gradientUnits="userSpaceOnUse">
<stop stop-color="#8CFF6D"/>
<stop offset="1" stop-color="#D3FDB1"/>
</linearGradient>
<linearGradient id="paint5_linear_374_35" x1="251.042" y1="14.4913" x2="251.156" y2="82.7508" gradientUnits="userSpaceOnUse">
<stop stop-color="#8CFF6D"/>
<stop offset="1" stop-color="#D3FDB1"/>
</linearGradient>
<linearGradient id="paint6_linear_374_35" x1="287.74" y1="14.4934" x2="287.987" y2="82.749" gradientUnits="userSpaceOnUse">
<stop stop-color="#8CFF6D"/>
<stop offset="1" stop-color="#D3FDB1"/>
</linearGradient>
<linearGradient id="paint7_linear_374_35" x1="287.74" y1="4.54626" x2="287.748" y2="17.5171" gradientUnits="userSpaceOnUse">
<stop stop-color="#8CFF6D"/>
<stop offset="1" stop-color="#D3FDB1"/>
</linearGradient>
<linearGradient id="paint8_linear_374_35" x1="324.949" y1="14.4929" x2="325.007" y2="82.7502" gradientUnits="userSpaceOnUse">
<stop stop-color="#8CFF6D"/>
<stop offset="1" stop-color="#D3FDB1"/>
</linearGradient>
<linearGradient id="paint9_linear_374_35" x1="83.1819" y1="0" x2="83.1982" y2="21.8726" gradientUnits="userSpaceOnUse">
<stop stop-color="#8CFF6D"/>
<stop offset="1" stop-color="#D3FDB1"/>
</linearGradient>
</defs>
</svg>
