<svg width="1890" height="160" viewBox="0 0 1890 160" fill="none" xmlns="http://www.w3.org/2000/svg">
<g clip-path="url(#clip0_105_1844)">
<path d="M103.621 153.272L68.9149 118.223L31.4667 80.3979V153.272H0V37.1997H36.1113L90.6468 95.1029L100.347 105.403V37.1997H131.805V153.272H103.621Z" fill="#051E17"/>
<path d="M232.907 153.272L227.2 139.604H179.888L174.181 153.272H140.615L189.066 37.1997H217.911L266.362 153.272H232.907ZM189.1 117.529H217.988L203.548 82.9173L189.109 117.529H189.1Z" fill="#051E17"/>
<path d="M309.911 155.765C297.109 155.765 286.268 152.32 278.573 145.799C271.203 139.56 267.073 130.768 266.593 120.33H300.382C300.699 125.883 305.052 130.374 310.554 130.682C310.742 130.691 310.948 130.699 311.145 130.699H311.197C317.118 130.674 321.943 125.729 321.943 119.688C321.943 114.855 318.909 110.638 314.402 109.182C312.91 108.685 311.188 108.17 308.823 107.519C307.563 107.176 306.432 106.859 305.369 106.542L305.292 106.517L305.215 106.499C291.641 103.149 281.058 97.2188 274.614 89.3607C268.384 81.7682 266.233 72.5048 268.401 62.5814L268.418 62.5214V62.4529C272.009 42.4263 292.481 35.3223 308.917 35.3223H309.56C321.617 35.3223 331.874 38.5786 339.218 44.7486C346.237 50.6357 350.256 58.9394 350.864 68.7856H321.677C321.017 65.8721 319.209 63.327 316.63 61.7845C316.492 61.6902 316.355 61.6045 316.21 61.536C315.636 61.2189 315.027 60.9618 314.393 60.7562C313.347 60.4219 312.259 60.2506 311.171 60.2506C306.732 60.2506 302.807 62.967 301.153 67.166C300.639 68.4857 300.382 69.8654 300.382 71.2622C300.382 71.7335 300.416 72.2048 300.476 72.7018C300.948 76.3438 303.193 79.5145 306.389 81.1341L306.595 81.3141L307.186 81.494C307.572 81.6483 307.966 81.7854 308.352 81.8968C310.871 82.7623 313.51 83.4564 315.644 84.022C317.324 84.4676 318.695 84.8361 319.946 85.2131C332.937 89.4807 341.926 94.6994 347.428 101.169C352.732 107.408 354.926 115.112 354.138 124.718C353.289 135.173 348.43 143.211 339.707 148.626C332.303 153.228 322.183 155.756 311.214 155.756H311.145C310.802 155.756 310.417 155.756 310.031 155.756H309.945L309.911 155.765Z" fill="#051E17"/>
<path d="M423.798 155.318C423.31 155.318 422.821 155.318 422.333 155.301H422.239H422.144C421.69 155.31 421.245 155.318 420.79 155.318C402.889 155.318 385.356 146.029 373.873 130.476C368.406 123.072 364.584 114.554 362.827 105.848C360.951 96.5669 361.379 87.3891 364.104 78.5626L365.492 74.0552H365.432C369.194 63.0949 376.375 53.5829 386.376 46.359C397.173 38.5608 410.327 34.2676 423.404 34.2676C433.345 34.2676 442.985 36.8041 451.297 41.603L451.374 41.6458C464.46 48.7927 474.555 60.7212 479.491 74.7321H443.808C437.989 68.6736 429.943 65.0916 421.973 65.0916C414.003 65.0916 406.42 68.5451 400.25 75.0835L400.181 75.152L400.121 75.2292C392.16 84.6469 390.378 96.027 395.219 106.465C400.215 117.219 411.287 124.443 422.77 124.443C430.542 124.443 437.869 121.212 443.962 115.111L444.039 115.034C444.039 115.034 444.159 114.897 444.168 114.888H479.593C471.127 138.231 447.921 155.327 423.807 155.327L423.798 155.318Z" fill="#051E17"/>
<path d="M543.641 155.732C513.262 155.732 488.548 131.018 488.548 100.639V36.9517H520.118V100.948C520.118 113.913 530.667 124.462 543.641 124.462C556.615 124.462 567.155 113.913 567.155 100.948V36.9517H598.725V101.359C598.545 115.936 592.735 129.604 582.366 139.844C571.997 150.093 558.243 155.74 543.641 155.74V155.732Z" fill="#051E17"/>
<path d="M628.666 153.271V69.0423H610.379V37.1899H678.231V69.0423H659.944V153.271H628.666Z" fill="#051E17"/>
<path d="M743.573 153.272V37.1997L774.791 37.2083V153.272H743.573Z" fill="#051E17"/>
<path d="M759.177 24.5759L740.316 33.7194V23.5561L759.177 11.6704L778.039 23.5561V33.728L759.177 24.5759Z" fill="#051E17"/>
<path d="M892.388 153.272L857.682 118.223L820.243 80.3979V153.272H788.768V37.1997H824.879L879.423 95.1029L889.115 105.403V37.1997H920.582V153.272H892.388Z" fill="#051E17"/>
<path d="M195.227 22.726L189.1 37.1996L224.406 26.0937L237.877 0C231.93 5.75005 222.624 13.1968 209.632 18.3899C204.457 20.4637 199.572 21.8176 195.219 22.726H195.227Z" fill="#051E17"/>
<path d="M1806.41 36.4966H1758.89L1777.06 155.122L1811.56 154.78L1806.83 130.837L1834.66 130.477L1850.88 154.3L1890 153.983L1806.41 36.5051V36.4966ZM1797.44 71.4767L1818.57 106.945H1802.46L1797.43 71.4767H1797.44Z" fill="#051E17"/>
<path d="M1198.19 159.202C1182.52 159.202 1170.21 155.123 1161.6 147.085C1154.02 140.024 1149.53 129.903 1148.59 117.821C1147.22 100.262 1153.54 79.8155 1165.48 63.1309C1178.54 44.8782 1196.54 33.1382 1216.17 30.0703C1221.98 29.162 1227.55 28.6992 1232.71 28.6992C1248.59 28.6992 1261.07 32.9068 1269.8 41.2019C1277.5 48.5116 1281.99 58.9234 1282.81 71.3061C1283.98 89.1047 1277.35 109.517 1265.08 125.902C1251.51 144.009 1232.67 155.492 1212.02 158.225C1207.2 158.868 1202.55 159.185 1198.2 159.185L1198.19 159.202ZM1222.88 61.5713C1220.45 61.5713 1217.84 61.7855 1215.15 62.2054C1194.84 65.3761 1181.17 87.1166 1182.51 104.435C1183.58 118.155 1193.21 126.347 1208.27 126.347C1210.32 126.347 1212.51 126.193 1214.75 125.902C1236.29 123.048 1250.01 101.565 1248.86 84.0659C1247.94 70.1921 1237.99 61.5713 1222.89 61.5713H1222.88Z" fill="#051E17"/>
<path d="M1596.15 159.202C1591.79 159.202 1587.14 158.876 1582.33 158.242C1561.66 155.509 1542.82 144.026 1529.26 125.919C1516.98 109.525 1510.34 89.1218 1511.52 71.3232C1512.33 58.9405 1516.83 48.5287 1524.52 41.219C1533.26 32.9239 1545.73 28.7163 1561.62 28.7163C1566.79 28.7163 1572.36 29.1791 1578.16 30.0874C1597.79 33.1552 1615.81 44.8953 1628.87 63.148C1640.8 79.8326 1647.12 100.279 1645.76 117.838C1644.82 129.921 1640.32 140.032 1632.75 147.094C1624.14 155.123 1611.82 159.202 1596.15 159.202ZM1571.46 61.5713C1556.36 61.5713 1546.41 70.1921 1545.49 84.0659C1544.34 101.565 1558.07 123.048 1579.59 125.902C1581.84 126.201 1584.01 126.347 1586.07 126.347C1601.14 126.347 1610.76 118.155 1611.82 104.435C1613.17 87.1166 1599.5 65.3761 1579.19 62.2054C1576.49 61.7855 1573.88 61.5713 1571.45 61.5713H1571.46Z" fill="#051E17"/>
<path d="M1718.13 110.965L1705.46 36.5059H1744.04L1757.64 154.943H1706.84L1626.67 36.5059H1668.96L1718.13 110.965Z" fill="#051E17"/>
<path d="M1274.63 153.821L1316.92 37.2515H1350.58L1321.86 119.303L1319.58 125.842H1381.27L1368.58 107.932L1394.22 37.2515H1456.7C1470.87 37.2515 1482 40.9963 1489.78 48.3916C1496.63 54.9044 1500.63 64.1764 1501.36 75.2138C1502.41 91.1271 1496.48 109.38 1485.49 124.051C1473.36 140.247 1456.51 150.521 1438.04 152.964C1433.77 153.538 1429.6 153.821 1425.67 153.821H1274.64H1274.63ZM1410.95 87.2023L1397.3 126.142H1417.4C1419.47 126.142 1421.68 125.987 1423.96 125.679C1445.75 122.722 1459.55 100.485 1458.34 82.3778C1457.38 68.1355 1447.35 59.2919 1432.17 59.2919C1431.98 59.2919 1431.77 59.2919 1431.56 59.2919H1420.72L1410.94 87.2109L1410.95 87.2023Z" fill="#051E17"/>
<path d="M1095.25 153.409L1100.44 94.2294L1055.38 152.184L1023.06 93.7581L1017.64 153.409H980.302L990.525 36.8403H1020.53L1059.01 90.3475L1109.6 36.8403H1143.12L1132.53 153.409H1095.25Z" fill="#051E17"/>
</g>
<defs>
<clipPath id="clip0_105_1844">
<rect width="1890" height="159.202" fill="white"/>
</clipPath>
</defs>
</svg>
