<svg width="1920" height="162" viewBox="0 0 1920 162" fill="none" xmlns="http://www.w3.org/2000/svg">
<g clip-path="url(#clip0_27_51)">
<path d="M105.266 155.705L70.0087 120.1L31.9662 81.674V155.705H0V37.7901H36.6845L92.0856 96.6124L101.94 107.076V37.7901H133.898V155.705H105.266Z" fill="url(#paint0_linear_27_51)"/>
<path d="M236.604 155.705L230.806 141.82H182.744L176.946 155.705H142.847L192.067 37.7901H221.369L270.59 155.705H236.604ZM192.102 119.394H221.448L206.779 84.2334L192.111 119.394H192.102Z" fill="url(#paint1_linear_27_51)"/>
<path d="M314.83 158.238C301.825 158.238 290.812 154.738 282.995 148.113C275.508 141.776 271.312 132.844 270.825 122.241H305.15C305.472 127.882 309.894 132.444 315.483 132.757C315.675 132.766 315.884 132.775 316.084 132.775H316.136C322.152 132.748 327.053 127.725 327.053 121.588C327.053 116.678 323.971 112.395 319.392 110.915C317.877 110.41 316.128 109.888 313.725 109.227C312.445 108.878 311.296 108.556 310.217 108.234L310.138 108.208L310.06 108.191C296.271 104.787 285.519 98.7626 278.973 90.7798C272.644 83.0668 270.459 73.6563 272.662 63.5754L272.679 63.5145V63.4449C276.327 43.1004 297.124 35.8836 313.821 35.8836H314.474C326.722 35.8836 337.142 39.1917 344.603 45.4595C351.733 51.4401 355.815 59.8757 356.434 69.8782H326.783C326.113 66.9183 324.276 64.3328 321.655 62.7658C321.516 62.6701 321.377 62.583 321.229 62.5134C320.646 62.1913 320.028 61.9301 319.383 61.7212C318.321 61.3817 317.216 61.2076 316.11 61.2076C311.601 61.2076 307.614 63.9672 305.934 68.2328C305.411 69.5735 305.15 70.975 305.15 72.394C305.15 72.8728 305.185 73.3516 305.246 73.8565C305.725 77.5563 308.005 80.7773 311.253 82.4226L311.461 82.6054L312.062 82.7882C312.454 82.9449 312.854 83.0842 313.246 83.1974C315.805 84.0766 318.487 84.7818 320.654 85.3563C322.361 85.809 323.753 86.1833 325.024 86.5664C338.222 90.9017 347.354 96.2033 352.943 102.776C358.331 109.113 360.56 116.939 359.759 126.698C358.897 137.319 353.961 145.484 345.099 150.986C337.578 155.661 327.297 158.229 316.154 158.229H316.084C315.736 158.229 315.344 158.229 314.952 158.229H314.865L314.83 158.238Z" fill="url(#paint2_linear_27_51)"/>
<path d="M430.525 157.785C430.029 157.785 429.533 157.785 429.037 157.768H428.941H428.845C428.384 157.776 427.931 157.785 427.47 157.785C409.284 157.785 391.473 148.349 379.808 132.548C374.254 125.027 370.371 116.374 368.586 107.529C366.68 98.101 367.115 88.7775 369.883 79.811L371.294 75.232H371.233C375.054 64.0978 382.35 54.4348 392.509 47.0961C403.478 39.1742 416.84 34.8128 430.125 34.8128C440.223 34.8128 450.017 37.3896 458.461 42.2646L458.539 42.3082C471.832 49.5685 482.087 61.6864 487.101 75.9197H450.852C444.941 69.765 436.767 66.1261 428.671 66.1261C420.575 66.1261 412.871 69.6344 406.603 76.2766L406.533 76.3463L406.472 76.4246C398.385 85.9918 396.574 97.5526 401.493 108.156C406.568 119.081 417.815 126.42 429.481 126.42C437.376 126.42 444.819 123.138 451.009 116.939L451.087 116.861C451.087 116.861 451.209 116.722 451.218 116.713H487.206C478.605 140.427 455.031 157.794 430.534 157.794L430.525 157.785Z" fill="url(#paint3_linear_27_51)"/>
<path d="M552.27 158.203C521.409 158.203 496.303 133.097 496.303 102.236V37.5376H528.374V102.549C528.374 115.721 539.09 126.437 552.27 126.437C565.45 126.437 576.158 115.721 576.158 102.549V37.5376H608.228V102.967C608.045 117.775 602.143 131.66 591.61 142.063C581.076 152.475 567.104 158.212 552.27 158.212V158.203Z" fill="url(#paint4_linear_27_51)"/>
<path d="M638.645 155.705V70.1393H620.068V37.7814H688.997V70.1393H670.42V155.705H638.645Z" fill="url(#paint5_linear_27_51)"/>
<path d="M755.375 155.705V37.7901L787.089 37.7988V155.705H755.375Z" fill="url(#paint6_linear_27_51)"/>
<path d="M771.228 24.967L752.067 34.2557V23.9311L771.228 11.8567L790.388 23.9311V34.2644L771.228 24.967Z" fill="url(#paint7_linear_27_51)"/>
<path d="M906.553 155.705L871.296 120.1L833.262 81.674V155.705H801.288V37.7901H837.972L893.382 96.6124L903.228 107.076V37.7901H935.194V155.705H906.553Z" fill="url(#paint8_linear_27_51)"/>
<path d="M198.326 23.0867L192.102 37.7901L227.968 26.5079L241.653 0C235.611 5.84132 226.157 13.4063 212.96 18.6818C207.702 20.7885 202.74 22.1639 198.317 23.0867H198.326Z" fill="url(#paint9_linear_27_51)"/>
<path d="M1835.09 37.0763H1786.81L1805.27 157.585L1840.31 157.237L1835.51 132.914L1863.78 132.548L1880.26 156.749L1920 156.427L1835.09 37.085V37.0763ZM1825.97 72.6117L1847.43 108.643H1831.07L1825.96 72.6117H1825.97Z" fill="url(#paint10_linear_27_51)"/>
<path d="M1217.21 161.729C1201.29 161.729 1188.78 157.585 1180.03 149.419C1172.34 142.246 1167.78 131.965 1166.82 119.69C1165.43 101.853 1171.85 81.082 1183.98 64.1326C1197.24 45.5901 1215.53 33.6637 1235.48 30.5472C1241.38 29.6244 1247.03 29.1543 1252.28 29.1543C1268.41 29.1543 1281.09 33.4287 1289.96 41.8555C1297.77 49.2812 1302.34 59.8582 1303.17 72.4375C1304.36 90.5186 1297.63 111.255 1285.16 127.9C1271.38 146.294 1252.24 157.959 1231.26 160.736C1226.36 161.389 1221.64 161.711 1217.22 161.711L1217.21 161.729ZM1242.29 62.5482C1239.82 62.5482 1237.18 62.7658 1234.43 63.1924C1213.8 66.4134 1199.92 88.499 1201.28 106.093C1202.36 120.03 1212.15 128.352 1227.45 128.352C1229.53 128.352 1231.75 128.196 1234.03 127.9C1255.91 125.001 1269.85 103.176 1268.68 85.3999C1267.75 71.3058 1257.64 62.5482 1242.3 62.5482H1242.29Z" fill="url(#paint11_linear_27_51)"/>
<path d="M1621.48 161.729C1617.06 161.729 1612.33 161.398 1607.44 160.754C1586.45 157.977 1567.31 146.311 1553.53 127.917C1541.05 111.264 1534.32 90.5361 1535.51 72.455C1536.34 59.8757 1540.91 49.2986 1548.72 41.8729C1557.59 33.4461 1570.27 29.1718 1586.41 29.1718C1591.66 29.1718 1597.32 29.6418 1603.21 30.5646C1623.15 33.6811 1641.45 45.6075 1654.72 64.15C1666.85 81.0994 1673.26 101.87 1671.88 119.708C1670.93 131.982 1666.36 142.255 1658.66 149.428C1649.92 157.585 1637.41 161.729 1621.48 161.729ZM1596.4 62.5482C1581.06 62.5482 1570.96 71.3058 1570.03 85.3999C1568.85 103.176 1582.8 125.001 1604.66 127.9C1606.95 128.204 1609.16 128.352 1611.25 128.352C1626.55 128.352 1636.33 120.03 1637.41 106.093C1638.77 88.499 1624.89 66.4134 1604.26 63.1924C1601.51 62.7659 1598.87 62.5482 1596.39 62.5482H1596.4Z" fill="url(#paint12_linear_27_51)"/>
<path d="M1745.4 112.726L1732.53 37.085H1771.72L1785.54 157.402H1733.93L1652.49 37.085H1695.45L1745.4 112.726Z" fill="url(#paint13_linear_27_51)"/>
<path d="M1294.87 156.262L1337.82 37.8423H1372.02L1342.84 121.196L1340.53 127.839H1403.2L1390.3 109.644L1416.35 37.8423H1479.82C1494.22 37.8423 1505.53 41.6466 1513.43 49.1594C1520.39 55.7755 1524.45 65.1947 1525.19 76.4072C1526.26 92.5731 1520.23 111.116 1509.07 126.019C1496.74 142.472 1479.63 152.91 1460.87 155.391C1456.53 155.974 1452.29 156.262 1448.3 156.262H1294.87H1294.87ZM1433.34 88.5861L1419.48 128.143H1439.9C1442 128.143 1444.24 127.987 1446.57 127.673C1468.7 124.67 1482.72 102.079 1481.48 83.6849C1480.51 69.2166 1470.32 60.2326 1454.91 60.2326C1454.71 60.2326 1454.5 60.2326 1454.29 60.2326H1443.27L1433.33 88.5948L1433.34 88.5861Z" fill="url(#paint14_linear_27_51)"/>
<path d="M1112.64 155.844L1117.91 95.7244L1072.13 154.599L1039.3 95.2456L1033.79 155.844H995.862L1006.25 37.4244H1036.72L1075.82 91.7809L1127.22 37.4244H1161.26L1150.5 155.844H1112.64Z" fill="url(#paint15_linear_27_51)"/>
</g>
<defs>
<linearGradient id="paint0_linear_27_51" x1="66.9488" y1="37.7901" x2="67.1013" y2="215.755" gradientUnits="userSpaceOnUse">
<stop stop-color="#8CFF6D"/>
<stop offset="1" stop-color="#D3FDB1"/>
</linearGradient>
<linearGradient id="paint1_linear_27_51" x1="206.718" y1="37.7901" x2="206.878" y2="215.755" gradientUnits="userSpaceOnUse">
<stop stop-color="#8CFF6D"/>
<stop offset="1" stop-color="#D3FDB1"/>
</linearGradient>
<linearGradient id="paint2_linear_27_51" x1="315.371" y1="35.8836" x2="315.618" y2="220.55" gradientUnits="userSpaceOnUse">
<stop stop-color="#8CFF6D"/>
<stop offset="1" stop-color="#D3FDB1"/>
</linearGradient>
<linearGradient id="paint3_linear_27_51" x1="427.314" y1="34.8128" x2="427.499" y2="220.425" gradientUnits="userSpaceOnUse">
<stop stop-color="#8CFF6D"/>
<stop offset="1" stop-color="#D3FDB1"/>
</linearGradient>
<linearGradient id="paint4_linear_27_51" x1="552.266" y1="37.5376" x2="552.457" y2="219.668" gradientUnits="userSpaceOnUse">
<stop stop-color="#8CFF6D"/>
<stop offset="1" stop-color="#D3FDB1"/>
</linearGradient>
<linearGradient id="paint5_linear_27_51" x1="654.532" y1="37.7814" x2="654.829" y2="215.759" gradientUnits="userSpaceOnUse">
<stop stop-color="#8CFF6D"/>
<stop offset="1" stop-color="#D3FDB1"/>
</linearGradient>
<linearGradient id="paint6_linear_27_51" x1="771.232" y1="37.7901" x2="771.876" y2="215.753" gradientUnits="userSpaceOnUse">
<stop stop-color="#8CFF6D"/>
<stop offset="1" stop-color="#D3FDB1"/>
</linearGradient>
<linearGradient id="paint7_linear_27_51" x1="771.228" y1="11.8567" x2="771.247" y2="45.6761" gradientUnits="userSpaceOnUse">
<stop stop-color="#8CFF6D"/>
<stop offset="1" stop-color="#D3FDB1"/>
</linearGradient>
<linearGradient id="paint8_linear_27_51" x1="868.241" y1="37.7901" x2="868.393" y2="215.755" gradientUnits="userSpaceOnUse">
<stop stop-color="#8CFF6D"/>
<stop offset="1" stop-color="#D3FDB1"/>
</linearGradient>
<linearGradient id="paint9_linear_27_51" x1="216.877" y1="0" x2="216.92" y2="57.0356" gradientUnits="userSpaceOnUse">
<stop stop-color="#8CFF6D"/>
<stop offset="1" stop-color="#D3FDB1"/>
</linearGradient>
<linearGradient id="paint10_linear_27_51" x1="1853.4" y1="37.0763" x2="1853.56" y2="218.957" gradientUnits="userSpaceOnUse">
<stop stop-color="#8CFF6D"/>
<stop offset="1" stop-color="#D3FDB1"/>
</linearGradient>
<linearGradient id="paint11_linear_27_51" x1="1234.97" y1="29.1543" x2="1235.16" y2="229.245" gradientUnits="userSpaceOnUse">
<stop stop-color="#8CFF6D"/>
<stop offset="1" stop-color="#D3FDB1"/>
</linearGradient>
<linearGradient id="paint12_linear_27_51" x1="1603.72" y1="29.1718" x2="1603.91" y2="229.237" gradientUnits="userSpaceOnUse">
<stop stop-color="#8CFF6D"/>
<stop offset="1" stop-color="#D3FDB1"/>
</linearGradient>
<linearGradient id="paint13_linear_27_51" x1="1719.01" y1="37.085" x2="1719.17" y2="218.677" gradientUnits="userSpaceOnUse">
<stop stop-color="#8CFF6D"/>
<stop offset="1" stop-color="#D3FDB1"/>
</linearGradient>
<linearGradient id="paint14_linear_27_51" x1="1410.09" y1="37.8423" x2="1410.18" y2="216.57" gradientUnits="userSpaceOnUse">
<stop stop-color="#8CFF6D"/>
<stop offset="1" stop-color="#D3FDB1"/>
</linearGradient>
<linearGradient id="paint15_linear_27_51" x1="1078.56" y1="37.4244" x2="1078.69" y2="216.152" gradientUnits="userSpaceOnUse">
<stop stop-color="#8CFF6D"/>
<stop offset="1" stop-color="#D3FDB1"/>
</linearGradient>
<clipPath id="clip0_27_51">
<rect width="1920" height="161.729" fill="white"/>
</clipPath>
</defs>
</svg>
