<svg width="22" height="22" viewBox="0 0 22 22" fill="none" xmlns="http://www.w3.org/2000/svg">
  <path
    d="M21.5182 11.0658C21.5182 5.09282 16.7059 0.250999 10.7705 0.250999C4.83247 0.252343 0.0202026 5.09282 0.0202026 11.0672C0.0202026 16.4638 3.95116 20.9376 9.08854 21.749V14.1921H6.36132V11.0672H9.09123V8.68254C9.09123 5.97278 10.6967 4.47617 13.1512 4.47617C14.328 4.47617 15.5573 4.6871 15.5573 4.6871V7.34714H14.2017C12.8677 7.34714 12.4512 8.18143 12.4512 9.03721V11.0658H15.431L14.9554 14.1907H12.4499V21.7477C17.5872 20.9362 21.5182 16.4625 21.5182 11.0658Z"
    fill="url(#paint0_linear_52_1215)" />
  <defs>
    <linearGradient id="paint0_linear_52_1215" x1="0.0202026" y1="11" x2="21.5182" y2="11"
      gradientUnits="userSpaceOnUse">
      <stop stop-color="#00FAA1" />
      <stop offset="1" stop-color="#8AFE6E" />
    </linearGradient>
  </defs>
</svg>