<svg width="23" height="22" viewBox="0 0 23 22" fill="none" xmlns="http://www.w3.org/2000/svg">
  <path
    d="M12.3769 0.252205C13.586 0.255429 14.1997 0.261878 14.7296 0.276925L14.9381 0.284448C15.1788 0.293046 15.4164 0.303794 15.7033 0.316691C16.8469 0.370429 17.6272 0.55099 18.3118 0.816457C19.0211 1.08945 19.6187 1.45917 20.2163 2.05566C20.763 2.59276 21.1859 3.24271 21.4555 3.96015C21.7209 4.64477 21.9015 5.42505 21.9552 6.56968C21.9681 6.85557 21.9789 7.09309 21.9875 7.33491L21.9939 7.54342C22.0101 8.0722 22.0165 8.68589 22.0187 9.89501L22.0197 10.6968V12.1047C22.0223 12.8887 22.0141 13.6726 21.995 14.4563L21.9886 14.6648C21.98 14.9066 21.9692 15.1442 21.9563 15.43C21.9026 16.5747 21.7199 17.3539 21.4555 18.0396C21.1859 18.757 20.763 19.407 20.2163 19.9441C19.6792 20.4908 19.0292 20.9137 18.3118 21.1833C17.6272 21.4487 16.8469 21.6293 15.7033 21.683L14.9381 21.7153L14.7296 21.7217C14.1997 21.7368 13.586 21.7443 12.3769 21.7464L11.5752 21.7475H10.1683C9.38399 21.7503 8.59969 21.742 7.81563 21.7228L7.60712 21.7164C7.35198 21.7067 7.0969 21.6956 6.84189 21.683C5.69834 21.6293 4.91806 21.4487 4.23236 21.1833C3.51531 20.9136 2.86573 20.4907 2.32895 19.9441C1.78183 19.4071 1.35855 18.7571 1.08867 18.0396C0.8232 17.355 0.642639 16.5747 0.588901 15.43L0.556658 14.6648L0.551284 14.4563C0.531472 13.6726 0.522515 12.8887 0.524415 12.1047V9.89501C0.52144 9.11107 0.529323 8.32713 0.54806 7.54342L0.555583 7.33491C0.564181 7.09309 0.574929 6.85557 0.587826 6.56968C0.641565 5.42505 0.822125 4.64585 1.08759 3.96015C1.3581 3.24242 1.78213 2.59244 2.33002 2.05566C2.86649 1.5092 3.51569 1.0863 4.23236 0.816457C4.91806 0.55099 5.69726 0.370429 6.84189 0.316691C7.12778 0.303794 7.36637 0.293046 7.60712 0.284448L7.81563 0.277999C8.59934 0.258904 9.38327 0.250663 10.1672 0.25328L12.3769 0.252205ZM11.2721 5.62603C9.84684 5.62603 8.47999 6.1922 7.4722 7.19999C6.46441 8.20778 5.89824 9.57464 5.89824 10.9999C5.89824 12.4251 6.46441 13.7919 7.4722 14.7997C8.47999 15.8075 9.84684 16.3737 11.2721 16.3737C12.6973 16.3737 14.0642 15.8075 15.0719 14.7997C16.0797 13.7919 16.6459 12.4251 16.6459 10.9999C16.6459 9.57464 16.0797 8.20778 15.0719 7.19999C14.0642 6.1922 12.6973 5.62603 11.2721 5.62603ZM11.2721 7.77557C11.6955 7.7755 12.1148 7.85883 12.506 8.0208C12.8972 8.18277 13.2527 8.42021 13.5522 8.71956C13.8516 9.01892 14.0892 9.37432 14.2513 9.76548C14.4134 10.1566 14.4968 10.5759 14.4969 10.9993C14.497 11.4227 14.4136 11.842 14.2517 12.2333C14.0897 12.6245 13.8523 12.98 13.5529 13.2794C13.2536 13.5789 12.8982 13.8164 12.507 13.9785C12.1158 14.1406 11.6966 14.2241 11.2731 14.2242C10.418 14.2242 9.5979 13.8845 8.99323 13.2798C8.38855 12.6751 8.04885 11.855 8.04885 10.9999C8.04885 10.1447 8.38855 9.32461 8.99323 8.71994C9.5979 8.11527 10.418 7.77557 11.2731 7.77557M16.9157 4.01389C16.5594 4.01389 16.2176 4.15543 15.9657 4.40738C15.7138 4.65932 15.5722 5.00104 15.5722 5.35734C15.5722 5.71365 15.7138 6.05536 15.9657 6.30731C16.2176 6.55926 16.5594 6.7008 16.9157 6.7008C17.272 6.7008 17.6137 6.55926 17.8656 6.30731C18.1176 6.05536 18.2591 5.71365 18.2591 5.35734C18.2591 5.00104 18.1176 4.65932 17.8656 4.40738C17.6137 4.15543 17.272 4.01389 16.9157 4.01389Z"
    fill="url(#paint0_linear_52_1214)" />
  <defs>
    <linearGradient id="paint0_linear_52_1214" x1="0.523804" y1="11.0001" x2="22.0202" y2="11.0001"
      gradientUnits="userSpaceOnUse">
      <stop stop-color="#00FAA1" />
      <stop offset="1" stop-color="#8AFE6E" />
    </linearGradient>
  </defs>
</svg>