<svg width="22" height="22" viewBox="0 0 22 22" fill="none" xmlns="http://www.w3.org/2000/svg">
  <path fill-rule="evenodd" clip-rule="evenodd"
    d="M15.2962 21.479C16.9352 21.479 18.5071 20.8279 19.6661 19.6689C20.825 18.51 21.4761 16.9381 21.4761 15.2991V6.70094C21.4761 5.06192 20.825 3.49004 19.6661 2.33109C18.5071 1.17213 16.9352 0.521034 15.2962 0.521034H6.69809C5.05908 0.521034 3.4872 1.17213 2.32824 2.33109C1.16928 3.49004 0.518188 5.06192 0.518188 6.70094V15.2991C0.518188 16.9381 1.16928 18.51 2.32824 19.6689C3.4872 20.8279 5.05908 21.479 6.69809 21.479H15.2962ZM12.8361 4.29669C12.7753 4.11553 12.6521 3.96186 12.4885 3.86312C12.3248 3.76437 12.1315 3.72696 11.9428 3.75756C11.7542 3.78816 11.5826 3.88477 11.4586 4.03018C11.3346 4.17558 11.2663 4.36031 11.2658 4.55141V14.2243C11.2658 14.7026 11.124 15.1701 10.8583 15.5678C10.5926 15.9655 10.2149 16.2754 9.77304 16.4584C9.33116 16.6415 8.84494 16.6894 8.37585 16.5961C7.90676 16.5027 7.47588 16.2724 7.13768 15.9342C6.79949 15.596 6.56917 15.1652 6.47586 14.6961C6.38256 14.227 6.43045 13.7408 6.61348 13.2989C6.79651 12.857 7.10645 12.4793 7.50413 12.2136C7.9018 11.9479 8.36934 11.8061 8.84762 11.8061C9.06141 11.8061 9.26643 11.7211 9.4176 11.57C9.56877 11.4188 9.6537 11.2138 9.6537 11C9.6537 10.7862 9.56877 10.5812 9.4176 10.43C9.26643 10.2789 9.06141 10.1939 8.84762 10.1939C8.05049 10.1939 7.27126 10.4303 6.60847 10.8732C5.94568 11.316 5.42909 11.9455 5.12404 12.6819C4.819 13.4184 4.73918 14.2288 4.89469 15.0106C5.05021 15.7924 5.43406 16.5105 5.99772 17.0742C6.56138 17.6379 7.27952 18.0217 8.06134 18.1772C8.84315 18.3327 9.65352 18.2529 10.39 17.9479C11.1264 17.6428 11.7559 17.1262 12.1988 16.4635C12.6416 15.8007 12.878 15.0214 12.878 14.2243V7.19318C13.7023 7.95841 14.8631 8.58178 16.371 8.58178C16.5848 8.58178 16.7898 8.49685 16.941 8.34568C17.0921 8.19451 17.1771 7.98949 17.1771 7.7757C17.1771 7.56192 17.0921 7.35689 16.941 7.20572C16.7898 7.05455 16.5848 6.96963 16.371 6.96963C15.3263 6.96963 14.5321 6.53972 13.9431 5.98192C13.3412 5.41014 12.9779 4.72122 12.8361 4.29669Z"
    fill="url(#paint0_linear_52_1216)" />
  <defs>
    <linearGradient id="paint0_linear_52_1216" x1="0.518188" y1="11" x2="21.4761" y2="11"
      gradientUnits="userSpaceOnUse">
      <stop stop-color="#00FAA1" />
      <stop offset="1" stop-color="#8AFE6E" />
    </linearGradient>
  </defs>
</svg>