<svg width="1013" height="620" viewBox="0 0 1013 620" fill="none" xmlns="http://www.w3.org/2000/svg">
<g clip-path="url(#clip0_58_1386)">
<path d="M61.1938 362.692L474.969 619.123H437.116L51.3342 371.398L61.1938 362.692Z" fill="#C9F873"/>
<path d="M104.223 312.285L272.743 619.122H310.077L111.917 306.125L104.223 312.285Z" fill="#00FBA2"/>
<path d="M116.149 302.952L640.377 619.122H591.637L107.853 309.174L116.149 302.952Z" fill="#00FBA2"/>
<path d="M1012.03 168.224V219.056L703.968 53.4574L650.733 24.8387L640.816 19.5069L636.359 17.1152L640.267 15.5752L645.062 13.6852L658.654 8.33014L1012.03 168.224Z" fill="#00FBA2"/>
<path d="M1012.03 360.236V459.287L662.598 48.1839L641.317 23.1469L633.699 14.1868L638.109 0L658.654 8.3301L703.968 53.4573L1012.03 360.236Z" fill="#C9F873"/>
<path d="M192.199 243.03L272.743 619.122H300.225L202.518 238.901L192.199 243.03Z" fill="#8CFF6D"/>
<path d="M1012.03 491.021V539.975L870.057 456.394L793.931 411.582L686.34 348.243L655.434 330.042L374.439 164.63L374.428 164.619L350.522 150.537L360.952 146.862L364.522 145.602L652.413 299.184L681.708 314.805L774.214 364.156L841.392 399.985L1012.03 491.021Z" fill="#D3FDB1"/>
<path d="M210.284 235.915L509.191 619.122H474.969L195.742 241.506L210.284 235.915Z" fill="#8CFF6D"/>
<path d="M876.147 619.122H810.871L715.763 560.742L675.583 536.078L639.847 514.133L563.313 467.151L398.426 365.929L375.268 351.708L232.023 263.775L209.237 249.786L204.582 246.928L195.855 241.573L195.739 241.503L202.517 238.901L210.287 235.915L371.056 328.432L392.884 340.997L532.548 421.382L598.022 459.066L672.223 501.766L710.665 523.886L876.147 619.122Z" fill="#005FFF"/>
<path d="M952.763 619.122H880.23L793.931 411.582L774.214 364.156L645.763 55.2423L629.744 16.7302L638.109 0L645.063 13.6852L650.733 24.8386L662.598 48.1839L841.392 399.985L870.057 456.394L952.763 619.122Z" fill="#8CFF6D"/>
<path d="M26.4438 419.102L261.466 619.123H232.817L20.7399 429.012L26.4438 419.102Z" fill="#00C969"/>
<path d="M723.848 619.122H683.703L678.406 564.907L675.583 536.078L672.223 501.766L655.434 330.042L652.413 299.184L624.891 17.6985L638.109 0L640.267 15.5752L640.816 19.5069L641.317 23.1469L645.762 55.2423L681.708 314.805L686.34 348.243L710.665 523.886L715.763 560.742L723.848 619.122Z" fill="#00FBA2"/>
<path d="M51.3339 371.398L171.632 619.123H192.199L61.1936 362.692L51.3339 371.398Z" fill="#00FBA2"/>
<path d="M719.578 619.123H665.456L563.313 467.151L532.548 421.382L350.522 150.537L360.952 146.862L374.427 164.619L374.439 164.63L598.022 459.066L639.847 514.133L678.406 564.907L719.578 619.123Z" fill="#8CFF6D"/>
<path d="M339.633 154.772L423.634 619.122H454.745L350.522 150.543L339.633 154.772Z" fill="#00FBA2"/>
<path d="M104.223 312.286L173.705 619.122H198.595L107.853 309.174L104.223 312.286Z" fill="#D3FDB1"/>
<path d="M3.17924 475.358L161.661 619.122H139.672L7.62939e-05 480.806L3.17924 475.358Z" fill="#00FBA2"/>
<path d="M20.7402 429.012L101.737 619.123H121.767L26.4441 419.102L20.7402 429.012Z" fill="#005FFF"/>
<path d="M-9.15527e-05 480.806L51.3339 619.122H74.6675L3.17908 475.358L-9.15527e-05 480.806Z" fill="#8CFF6D"/>
</g>
<defs>
<clipPath id="clip0_58_1386">
<rect width="1012.03" height="619.122" fill="white" transform="matrix(-1 0 0 1 1012.03 0)"/>
</clipPath>
</defs>
</svg>
