<svg width="307" height="103" viewBox="0 0 307 103" fill="none" xmlns="http://www.w3.org/2000/svg">
<g clip-path="url(#clip0_55_472)">
<path d="M278.708 61.0388H262.622L268.773 101.192L280.448 101.075L278.849 92.9709L288.267 92.8496L293.758 100.913L307 100.806L278.708 61.0388ZM275.671 72.8798L282.822 84.8865H277.369L275.67 72.8798H275.671Z" fill="url(#paint0_linear_55_472)"/>
<path d="M74.2292 102.572C68.9247 102.572 64.7565 101.192 61.8402 98.4718C59.2774 96.081 57.7551 92.6557 57.4378 88.5658C56.9768 82.6209 59.1138 75.701 63.1541 70.055C67.5755 63.8764 73.6702 59.9026 80.3153 58.8651C82.2814 58.5578 84.1653 58.4021 85.9146 58.4021C91.2898 58.4021 95.5136 59.8261 98.4681 62.6349C101.072 65.1099 102.594 68.6336 102.87 72.8251C103.267 78.8491 101.024 85.7578 96.8681 91.3058C92.2772 97.4354 85.8986 101.321 78.9071 102.246C77.2757 102.463 75.7025 102.572 74.2312 102.572H74.2292ZM82.5874 69.5248C81.7637 69.5248 80.8827 69.5972 79.9684 69.7402C73.095 70.8134 68.4677 78.1716 68.9225 84.0334C69.283 88.6784 72.5425 91.4514 77.642 91.4514C78.3362 91.4514 79.0736 91.4003 79.8341 91.2994C87.1232 90.3349 91.7679 83.0625 91.3778 77.1391C91.0684 72.4422 87.7001 69.5246 82.5874 69.5246V69.5248Z" fill="url(#paint1_linear_55_472)"/>
<path d="M208.935 102.572C207.461 102.572 205.887 102.462 204.258 102.246C197.265 101.321 190.886 97.4354 186.294 91.3056C182.138 85.7574 179.894 78.8487 180.291 72.8249C180.567 68.6336 182.089 65.1099 184.693 62.6349C187.649 59.8263 191.873 58.4023 197.25 58.4023C198.999 58.4023 200.883 58.5582 202.849 58.8653C209.495 59.9029 215.591 63.8777 220.013 70.0574C224.054 75.7047 226.192 82.6255 225.73 88.5705C225.412 92.6598 223.89 96.0845 221.326 98.4744C218.41 101.194 214.242 102.572 208.939 102.572H208.935L208.935 102.572ZM200.577 69.5248C195.465 69.5248 192.098 72.4426 191.788 77.1395C191.398 83.0629 196.042 90.3351 203.331 91.2996C204.091 91.4003 204.828 91.4516 205.522 91.4516C210.621 91.4516 213.88 88.6784 214.24 84.0335C214.695 78.1714 210.069 70.8134 203.196 69.7402C202.282 69.5972 201.401 69.5248 200.577 69.5248Z" fill="url(#paint2_linear_55_472)"/>
<path d="M250.227 86.2443L245.936 61.0414H258.994L263.598 101.13H246.403L219.266 61.0414H233.581L250.227 86.2443Z" fill="url(#paint3_linear_55_472)"/>
<path d="M100.103 100.752L114.415 61.2944H125.812L116.09 89.0677L115.317 91.2816H136.199L131.904 85.22L140.582 61.2944H161.729C166.528 61.2944 170.295 62.5631 172.928 65.0653C175.245 67.2684 176.6 70.4079 176.847 74.1442C177.202 79.5307 175.194 85.7102 171.476 90.6744C167.369 96.1578 161.665 99.6333 155.413 100.461C153.965 100.654 152.557 100.752 151.225 100.752H100.103H100.103ZM146.246 78.2006L141.629 91.3807H148.431C149.132 91.3807 149.88 91.3281 150.654 91.2241C158.026 90.224 162.702 82.6962 162.288 76.5656C161.962 71.7448 158.569 68.7502 153.432 68.7502C153.364 68.7502 153.294 68.7506 153.226 68.7517H149.555L146.246 78.2008L146.246 78.2006Z" fill="url(#paint4_linear_55_472)"/>
<path d="M39.3855 100.612L41.1425 80.5815L25.8889 100.198L14.9494 80.4197L13.1137 100.612H0.475098L3.93505 61.1549H14.0913L27.1187 79.2665L44.2433 61.1549H55.5876L52.0029 100.612H39.3855Z" fill="url(#paint5_linear_55_472)"/>
<path d="M36.6984 49.1502L25.5684 37.9107L13.5615 25.7823V49.1502H3.46924V11.9282H15.0493L32.5391 30.4967L35.6477 33.7996V11.9282H45.7371V49.1502H36.6984Z" fill="url(#paint6_linear_55_472)"/>
<path d="M78.1584 49.1502L76.3285 44.7673H61.1555L59.3252 49.1502H48.5613L64.0997 11.9273H73.3497L88.8881 49.1502H78.1584ZM64.1101 37.6899H73.3735L68.7419 26.5915L64.1101 37.6899Z" fill="url(#paint7_linear_55_472)"/>
<path d="M102.853 49.9501C98.7477 49.9501 95.2722 48.8448 92.8022 46.7539C90.439 44.7534 89.1137 41.9342 88.9595 38.5871H99.7952C99.8973 40.3682 101.294 41.8077 103.058 41.9059C103.119 41.9094 103.184 41.91 103.247 41.91H103.263C105.163 41.9009 106.708 40.3165 106.708 38.378C106.708 36.8284 105.737 35.4758 104.29 35.0102C103.812 34.8519 103.259 34.6871 102.501 34.4763C102.096 34.3651 101.735 34.2654 101.392 34.1632L101.367 34.1556L101.341 34.1491C96.9879 33.0746 93.5945 31.1742 91.5274 28.6534C89.5297 26.2174 88.841 23.2479 89.5351 20.0658L89.5397 20.0452L89.5433 20.0245C90.6923 13.6035 97.2556 11.3251 102.527 11.3251L102.734 11.3225C106.6 11.3238 109.888 12.3693 112.245 14.3467C114.496 16.2356 115.784 18.8963 115.98 22.0542H106.62C106.408 21.1196 105.828 20.3024 105.001 19.8087C104.957 19.7788 104.912 19.752 104.865 19.7287C104.682 19.6275 104.486 19.5436 104.282 19.4793C103.947 19.3714 103.599 19.3167 103.247 19.3167C101.824 19.3167 100.564 20.1873 100.036 21.5345C99.8715 21.9582 99.7885 22.3995 99.7885 22.8493C99.7885 23.0003 99.7984 23.1514 99.8188 23.3114C99.9703 24.479 100.69 25.4973 101.715 26.0169L101.78 26.0757L101.97 26.1333C102.094 26.1834 102.22 26.2271 102.345 26.2632C103.152 26.5398 104 26.7634 104.683 26.9437C105.221 27.086 105.662 27.2058 106.062 27.3263L106.061 27.3243C110.228 28.6934 113.111 30.3678 114.874 32.4425C116.574 34.4438 117.278 36.9138 117.026 39.9932C116.754 43.3446 115.197 45.9242 112.399 47.6609C110.023 49.1355 106.778 49.9477 103.261 49.9477H103.238C103.128 49.9503 103.005 49.9503 102.881 49.9503H102.853L102.853 49.9501Z" fill="url(#paint8_linear_55_472)"/>
<path d="M139.374 49.8086C139.218 49.8086 139.061 49.8063 138.904 49.8019L138.874 49.8011L138.844 49.8019C138.699 49.8056 138.556 49.8076 138.411 49.8076H138.41C132.67 49.8069 127.046 46.8285 123.364 41.8399C121.612 39.4651 120.387 36.7341 119.822 33.9419C119.221 30.9657 119.358 28.022 120.231 25.1917L120.677 23.7461H120.657C121.865 20.2308 124.165 17.1817 127.375 14.8648C130.838 12.3648 135.055 10.9879 139.249 10.9879C142.436 10.9879 145.529 11.8019 148.193 13.3416L148.216 13.3548C152.414 15.6472 155.649 19.4713 157.233 23.9647H145.79C143.925 22.0209 141.344 20.8737 138.788 20.8737C136.209 20.8737 133.8 21.9813 131.822 24.077L131.8 24.0992L131.781 24.1228C129.229 27.1427 128.656 30.7932 130.209 34.1383C131.81 37.5874 135.361 39.905 139.043 39.905H139.044C141.538 39.9047 143.887 38.8696 145.84 36.9114L145.865 36.8861C145.865 36.8861 145.902 36.8433 145.905 36.8397H157.265C154.55 44.3259 147.108 49.8089 139.375 49.8089L139.374 49.8086Z" fill="url(#paint9_linear_55_472)"/>
<path d="M177.804 49.9414C168.063 49.9414 160.137 42.016 160.137 32.2744V11.8488H170.261V32.3702C170.261 36.528 173.645 39.9106 177.804 39.9106C181.964 39.9106 185.345 36.528 185.345 32.3702V11.8488H195.468V32.5022C195.409 37.1763 193.546 41.5586 190.222 44.8427C186.896 48.1306 182.486 49.9414 177.804 49.9414Z" fill="url(#paint10_linear_55_472)"/>
<path d="M205.071 49.1502V22.1398H199.207V11.9269H220.966V22.1398H215.101V49.1502H205.071Z" fill="url(#paint11_linear_55_472)"/>
<path d="M235.284 49.1502V11.9286L245.296 11.9329V49.1502H235.284Z" fill="url(#paint12_linear_55_472)"/>
<path d="M240.29 7.88218L234.242 10.8143V7.555L240.29 3.7417L246.338 7.55522V10.8149L240.29 7.88218Z" fill="url(#paint13_linear_55_472)"/>
<path d="M283.009 49.1502L271.879 37.9107L259.872 25.7823V49.1502H249.78V11.9282H261.36L278.85 30.4967L281.958 33.7996V11.9282H292.048V49.1502H283.009Z" fill="url(#paint14_linear_55_472)"/>
<path d="M66.0743 7.28687L64.1101 11.9275L75.4309 8.36724L79.7519 -1.52588e-05C77.8444 1.84392 74.8606 4.23129 70.6953 5.89726C69.0345 6.56157 67.4695 6.99796 66.0743 7.28687Z" fill="url(#paint15_linear_55_472)"/>
</g>
<defs>
<linearGradient id="paint0_linear_55_472" x1="284.811" y1="61.0388" x2="284.864" y2="121.64" gradientUnits="userSpaceOnUse">
<stop stop-color="#8CFF6D"/>
<stop offset="1" stop-color="#D3FDB1"/>
</linearGradient>
<linearGradient id="paint1_linear_55_472" x1="80.1457" y1="58.4021" x2="80.2086" y2="125.067" gradientUnits="userSpaceOnUse">
<stop stop-color="#8CFF6D"/>
<stop offset="1" stop-color="#D3FDB1"/>
</linearGradient>
<linearGradient id="paint2_linear_55_472" x1="203.019" y1="58.4023" x2="203.082" y2="125.067" gradientUnits="userSpaceOnUse">
<stop stop-color="#8CFF6D"/>
<stop offset="1" stop-color="#D3FDB1"/>
</linearGradient>
<linearGradient id="paint3_linear_55_472" x1="241.432" y1="61.0414" x2="241.485" y2="121.547" gradientUnits="userSpaceOnUse">
<stop stop-color="#8CFF6D"/>
<stop offset="1" stop-color="#D3FDB1"/>
</linearGradient>
<linearGradient id="paint4_linear_55_472" x1="138.495" y1="61.2944" x2="138.525" y2="120.846" gradientUnits="userSpaceOnUse">
<stop stop-color="#8CFF6D"/>
<stop offset="1" stop-color="#D3FDB1"/>
</linearGradient>
<linearGradient id="paint5_linear_55_472" x1="28.0314" y1="61.1549" x2="28.0729" y2="120.706" gradientUnits="userSpaceOnUse">
<stop stop-color="#8CFF6D"/>
<stop offset="1" stop-color="#D3FDB1"/>
</linearGradient>
<linearGradient id="paint6_linear_55_472" x1="24.6032" y1="11.9282" x2="24.6513" y2="68.1064" gradientUnits="userSpaceOnUse">
<stop stop-color="#8CFF6D"/>
<stop offset="1" stop-color="#D3FDB1"/>
</linearGradient>
<linearGradient id="paint7_linear_55_472" x1="68.7247" y1="11.9273" x2="68.7752" y2="68.1068" gradientUnits="userSpaceOnUse">
<stop stop-color="#8CFF6D"/>
<stop offset="1" stop-color="#D3FDB1"/>
</linearGradient>
<linearGradient id="paint8_linear_55_472" x1="103.018" y1="11.3225" x2="103.096" y2="69.6224" gradientUnits="userSpaceOnUse">
<stop stop-color="#8CFF6D"/>
<stop offset="1" stop-color="#D3FDB1"/>
</linearGradient>
<linearGradient id="paint9_linear_55_472" x1="138.36" y1="10.9879" x2="138.418" y2="69.5793" gradientUnits="userSpaceOnUse">
<stop stop-color="#8CFF6D"/>
<stop offset="1" stop-color="#D3FDB1"/>
</linearGradient>
<linearGradient id="paint10_linear_55_472" x1="177.803" y1="11.8488" x2="177.863" y2="69.341" gradientUnits="userSpaceOnUse">
<stop stop-color="#8CFF6D"/>
<stop offset="1" stop-color="#D3FDB1"/>
</linearGradient>
<linearGradient id="paint11_linear_55_472" x1="210.086" y1="11.9269" x2="210.18" y2="68.1069" gradientUnits="userSpaceOnUse">
<stop stop-color="#8CFF6D"/>
<stop offset="1" stop-color="#D3FDB1"/>
</linearGradient>
<linearGradient id="paint12_linear_55_472" x1="240.29" y1="11.9286" x2="240.493" y2="68.1054" gradientUnits="userSpaceOnUse">
<stop stop-color="#8CFF6D"/>
<stop offset="1" stop-color="#D3FDB1"/>
</linearGradient>
<linearGradient id="paint13_linear_55_472" x1="240.29" y1="3.7417" x2="240.296" y2="14.4171" gradientUnits="userSpaceOnUse">
<stop stop-color="#8CFF6D"/>
<stop offset="1" stop-color="#D3FDB1"/>
</linearGradient>
<linearGradient id="paint14_linear_55_472" x1="270.914" y1="11.9282" x2="270.962" y2="68.1064" gradientUnits="userSpaceOnUse">
<stop stop-color="#8CFF6D"/>
<stop offset="1" stop-color="#D3FDB1"/>
</linearGradient>
<linearGradient id="paint15_linear_55_472" x1="71.931" y1="-1.52588e-05" x2="71.9444" y2="18.0019" gradientUnits="userSpaceOnUse">
<stop stop-color="#8CFF6D"/>
<stop offset="1" stop-color="#D3FDB1"/>
</linearGradient>
<clipPath id="clip0_55_472">
<rect width="306.525" height="102.572" fill="white" transform="translate(0.475098)"/>
</clipPath>
</defs>
</svg>
