<svg width="335" height="112" viewBox="0 0 335 112" fill="none" xmlns="http://www.w3.org/2000/svg">
<g clip-path="url(#clip0_105_2002)">
<path d="M303.648 66.6143H286.093L292.806 110.435L305.547 110.307L303.802 101.463L314.08 101.331L320.073 110.131L334.525 110.014L303.648 66.6143ZM300.334 79.5369L308.138 92.6404H302.188L300.333 79.5369H300.334Z" fill="#051E17"/>
<path d="M80.4913 111.942C74.7023 111.942 70.1533 110.436 66.9706 107.467C64.1738 104.858 62.5124 101.12 62.1661 96.6563C61.663 90.1684 63.9951 82.6164 68.4046 76.4547C73.2298 69.7117 79.8813 65.3749 87.1333 64.2426C89.2791 63.9072 91.3351 63.7373 93.2441 63.7373C99.1104 63.7373 103.72 65.2914 106.944 68.3568C109.786 71.0578 111.447 74.9034 111.749 79.4778C112.182 86.0521 109.733 93.5918 105.198 99.6467C100.188 106.336 93.2266 110.577 85.5965 111.587C83.8161 111.823 82.0992 111.942 80.4935 111.942H80.4913ZM89.613 75.876C88.7141 75.876 87.7526 75.9551 86.7548 76.111C79.2535 77.2823 74.2036 85.3127 74.6999 91.71C75.0933 96.7793 78.6505 99.8055 84.2159 99.8055C84.9735 99.8055 85.7782 99.7498 86.6082 99.6396C94.5631 98.587 99.6322 90.6503 99.2064 84.1858C98.8687 79.0599 95.1928 75.8758 89.613 75.8758V75.876Z" fill="#051E17"/>
<path d="M227.502 111.942C225.894 111.942 224.176 111.822 222.397 111.586C214.766 110.576 207.804 106.336 202.793 99.6462C198.257 93.5911 195.808 86.0514 196.241 79.4774C196.543 74.9032 198.204 71.0576 201.046 68.3565C204.271 65.2914 208.882 63.7373 214.749 63.7373C216.659 63.7373 218.714 63.9075 220.86 64.2426C228.113 65.3749 234.766 69.7128 239.592 76.457C244.002 82.6202 246.335 90.1731 245.831 96.6613C245.484 101.124 243.823 104.862 241.025 107.47C237.843 110.437 233.294 111.942 227.506 111.942H227.502L227.502 111.942ZM218.381 75.8758C212.802 75.8758 209.126 79.0601 208.789 84.186C208.363 90.6506 213.431 98.587 221.386 99.6396C222.215 99.7496 223.02 99.8055 223.778 99.8055C229.342 99.8055 232.899 96.779 233.292 91.7097C233.789 85.3122 228.739 77.2821 221.239 76.1108C220.241 75.9548 219.279 75.8758 218.381 75.8758Z" fill="#051E17"/>
<path d="M272.566 94.1214L267.883 66.6162H282.134L287.158 110.367H268.393L238.777 66.6162H254.4L272.566 94.1214Z" fill="#051E17"/>
<path d="M108.729 109.954L124.348 66.8926H136.786L126.175 97.2028L125.332 99.619H148.122L143.435 93.0037L152.905 66.8926H175.984C181.221 66.8926 185.333 68.2772 188.205 71.008C190.735 73.4123 192.214 76.8386 192.482 80.9162C192.87 86.7947 190.679 93.5387 186.621 98.9563C182.139 104.941 175.913 108.734 169.091 109.637C167.511 109.847 165.974 109.954 164.52 109.954H108.729H108.729ZM159.086 85.3431L154.047 99.7271H161.472C162.236 99.7271 163.053 99.6697 163.897 99.5562C171.943 98.4647 177.045 90.2493 176.594 83.5587C176.239 78.2975 172.535 75.0294 166.929 75.0294C166.855 75.0294 166.779 75.0299 166.704 75.0311H162.698L159.086 85.3433L159.086 85.3431Z" fill="#051E17"/>
<path d="M42.4647 109.802L44.3823 87.9423L27.7353 109.35L15.7965 87.7658L13.793 109.802H0L3.77601 66.7412H14.86L29.0774 86.5072L47.7663 66.7412H60.1468L56.2347 109.802H42.4647Z" fill="#051E17"/>
<path d="M39.5324 53.6387L27.3857 41.3725L14.282 28.1362V53.6387H3.26782V13.0166H15.9056L34.9931 33.2813L38.3856 36.8859V13.0166H49.3967V53.6387H39.5324Z" fill="#051E17"/>
<path d="M84.7794 53.6396L82.7824 48.8563H66.2234L64.2259 53.6396H52.4788L69.4366 13.0166H79.5315L96.4893 53.6396H84.7794ZM69.4479 41.1325H79.5575L74.5028 29.0203L69.4479 41.1325Z" fill="#051E17"/>
<path d="M111.729 54.5125C107.249 54.5125 103.456 53.3063 100.761 51.0244C98.1819 48.8412 96.7354 45.7644 96.5671 42.1116H108.393C108.504 44.0553 110.028 45.6264 111.953 45.7335C112.02 45.7373 112.091 45.738 112.16 45.738H112.177C114.251 45.7281 115.937 43.9989 115.937 41.8834C115.937 40.1922 114.877 38.716 113.298 38.2079C112.776 38.0352 112.173 37.8554 111.345 37.6252C110.903 37.5039 110.51 37.3952 110.136 37.2835L110.108 37.2753L110.08 37.2682C105.329 36.0955 101.626 34.0215 99.3696 31.2705C97.1895 28.6119 96.4378 25.3712 97.1954 21.8984L97.2003 21.876L97.2043 21.8533C98.4582 14.8458 105.621 12.3593 111.374 12.3593L111.6 12.3564C115.819 12.3579 119.408 13.4989 121.979 15.6569C124.436 17.7184 125.842 20.6221 126.055 24.0684H115.841C115.61 23.0484 114.977 22.1566 114.074 21.6178C114.026 21.5852 113.977 21.556 113.925 21.5305C113.726 21.42 113.512 21.3285 113.289 21.2584C112.923 21.1406 112.544 21.0809 112.16 21.0809C110.607 21.0809 109.232 22.031 108.656 23.5013C108.476 23.9637 108.385 24.4453 108.385 24.9362C108.385 25.1009 108.396 25.2659 108.418 25.4405C108.584 26.7147 109.369 27.826 110.487 28.3931L110.559 28.4573L110.766 28.5201C110.901 28.5749 111.038 28.6225 111.175 28.662C112.056 28.9638 112.981 29.2078 113.727 29.4046C114.315 29.5599 114.796 29.6907 115.232 29.8221L115.231 29.82C119.779 31.3141 122.925 33.1415 124.848 35.4057C126.704 37.5899 127.472 40.2855 127.198 43.6461C126.9 47.3036 125.201 50.1189 122.148 52.0142C119.555 53.6235 116.014 54.5099 112.175 54.5099H112.15C112.03 54.5127 111.896 54.5127 111.76 54.5127H111.73L111.729 54.5125Z" fill="#051E17"/>
<path d="M151.587 54.359C151.417 54.359 151.245 54.3564 151.074 54.3517L151.041 54.3507L151.009 54.3517C150.85 54.3557 150.694 54.3578 150.536 54.3578H150.534C144.271 54.3571 138.133 51.1067 134.115 45.6624C132.202 43.0706 130.865 40.0902 130.249 37.0429C129.592 33.7949 129.742 30.5822 130.695 27.4934L131.181 25.9157H131.161C132.478 22.0793 134.989 18.7517 138.492 16.2232C142.272 13.4948 146.874 11.9922 151.45 11.9922C154.929 11.9922 158.304 12.8805 161.211 14.5608L161.237 14.5752C165.818 17.0771 169.348 21.2505 171.077 26.1543H158.588C156.553 24.0329 153.737 22.7809 150.948 22.7809C148.133 22.7809 145.504 23.9897 143.345 26.2768L143.322 26.3011L143.3 26.3269C140.515 29.6226 139.889 33.6065 141.584 37.2572C143.332 41.0214 147.207 43.5506 151.226 43.5506H151.227C153.948 43.5504 156.513 42.4207 158.643 40.2837L158.671 40.2561C158.671 40.2561 158.711 40.2093 158.715 40.2053H171.112C168.15 48.3754 160.027 54.3592 151.587 54.3592L151.587 54.359Z" fill="#051E17"/>
<path d="M193.528 54.5029C182.896 54.5029 174.247 45.8534 174.247 35.2221V12.9307H185.295V35.3266C185.295 39.8642 188.988 43.5557 193.528 43.5557C198.067 43.5557 201.757 39.8642 201.757 35.3266V12.9307H212.805V35.4706C212.741 40.5717 210.708 45.3543 207.08 48.9384C203.45 52.5266 198.637 54.5029 193.528 54.5029Z" fill="#051E17"/>
<path d="M223.285 53.6391V24.1615H216.885V13.0156H240.632V24.1615H234.232V53.6391H223.285Z" fill="#051E17"/>
<path d="M256.258 53.6401V13.0186L267.184 13.0233V53.6401H256.258Z" fill="#051E17"/>
<path d="M261.721 8.60269L255.121 11.8026V8.24562L261.721 4.08398L268.322 8.24585V11.8033L261.721 8.60269Z" fill="#051E17"/>
<path d="M308.342 53.6387L296.196 41.3725L283.092 28.1362V53.6387H272.078V13.0166H284.716L303.803 33.2813L307.196 36.8859V13.0166H318.207V53.6387H308.342Z" fill="#051E17"/>
<path d="M71.5916 7.95251L69.448 13.0171L81.8029 9.13157L86.5186 0C84.4369 2.01238 81.1805 4.61782 76.6347 6.43597C74.8222 7.16096 73.1143 7.63721 71.5916 7.95251Z" fill="#051E17"/>
</g>
<defs>
<clipPath id="clip0_105_2002">
<rect width="334.525" height="111.942" fill="white"/>
</clipPath>
</defs>
</svg>
