<svg width="181" height="74" viewBox="0 0 181 74" fill="none" xmlns="http://www.w3.org/2000/svg">
<path d="M26.4056 72.7624C25.7783 72.7624 25.5126 72.5608 25.4022 72.1323L24.8001 70.2978H19.9882L19.2555 72.7826H15.6482C15.1113 72.7826 14.8203 72.4701 14.9758 71.9965L20.1687 57.5467C21.0915 57.155 22.0821 56.9497 23.0842 56.9419C24.1325 56.9419 24.5091 57.2093 24.8248 58.1063L30.1032 72.7624H26.4056ZM20.9714 67.0121H23.8214L22.3964 62.3346L20.9714 67.0121Z" fill="#051E17"/>
<path d="M30.3792 56.6096C31.3643 56.3703 32.376 56.2571 33.3895 56.2718C34.102 56.2718 34.4782 56.5843 34.4782 57.1688V68.1309C34.4782 69.2498 34.9048 69.6981 35.6823 69.6981C36.124 69.7004 36.5621 69.6166 36.9721 69.4514C37.3002 69.9807 37.4739 70.5914 37.4739 71.215C37.4739 71.956 36.184 72.9189 34.3128 72.9189C31.8844 72.9189 30.3691 71.3057 30.3691 68.1963L30.3792 56.6096Z" fill="#051E17"/>
<path d="M39.0242 64.149C38.7396 63.7164 38.5848 63.2106 38.5779 62.6924C38.5779 61.7548 40.8056 60.5453 43.3894 60.5453C46.8166 60.5453 48.5775 62.2238 48.5775 65.4442V68.9117C48.5775 69.5164 48.8235 69.7834 49.245 69.7834H49.8471C49.9914 70.2174 50.0675 70.6717 50.0725 71.1291C50.0725 71.976 49.0691 72.9186 47.5639 72.9186C47.0389 72.9246 46.5216 72.7911 46.0643 72.532C45.607 72.2724 45.2262 71.8964 44.96 71.4416C44.621 71.9534 44.1559 72.3686 43.6097 72.6466C43.064 72.925 42.4556 73.0566 41.8443 73.029C39.3353 73.029 37.6748 71.3054 37.6748 69.093C37.6748 66.7191 39.5461 65.2679 42.2407 65.2679C42.9848 65.238 43.727 65.3595 44.423 65.6255V64.9756C44.423 64.0584 43.8462 63.4081 42.2004 63.4081C41.1002 63.4159 40.0152 63.669 39.0242 64.149ZM43.5401 57.597C44.2274 57.597 44.5183 57.1284 44.5435 55.7827H46.3497C46.8817 55.7827 46.9921 55.964 46.972 56.3221C46.7914 58.4687 45.5021 59.6534 43.4947 59.6534C41.7587 59.6534 40.314 58.7614 39.9827 56.3419C40.517 55.976 41.1428 55.768 41.7889 55.7422C42.2104 55.7422 42.4313 55.8531 42.5014 56.2765C42.6521 57.1938 43.0132 57.5919 43.5451 57.5919L43.5401 57.597ZM44.4734 68.9167V67.687C44.0835 67.576 43.6794 67.5236 43.2739 67.5305C43.0787 67.5116 42.8812 67.5351 42.6957 67.5995C42.5101 67.6635 42.3401 67.7666 42.1976 67.9024C42.0546 68.0381 41.9429 68.2029 41.8686 68.3856C41.7949 68.5683 41.761 68.7649 41.7687 68.9618C41.7577 69.1197 41.7793 69.2785 41.8329 69.4272C41.8865 69.5763 41.9708 69.712 42.0803 69.8262C42.1894 69.9403 42.3213 70.0301 42.4675 70.0894C42.6136 70.1488 42.7703 70.1769 42.928 70.1714C43.2909 70.1704 43.6423 70.0453 43.9241 69.8161C44.2063 69.5869 44.4015 69.2679 44.4785 68.9117L44.4734 68.9167Z" fill="#051E17"/>
<path d="M51.5427 60.8123V57.5667C52.5288 57.3319 53.54 57.2201 54.5531 57.2344C55.2655 57.2344 55.6468 57.5464 55.6468 58.1263V60.8123H58.3615C58.8078 60.8123 59.0539 61.0797 59.0539 61.6642V63.9475H55.6468V68.3323C55.6468 69.4511 56.0481 69.8944 57.0717 69.8944C57.584 69.9017 58.093 69.8203 58.5773 69.6527C58.8866 70.0973 59.0607 70.6225 59.0791 71.1646C59.0791 71.971 57.7393 73.024 55.6921 73.024C53.1079 73.024 51.5276 71.4113 51.5276 68.3019V63.9475H50.3886C49.8571 63.9475 49.5656 63.635 49.5656 63.0049C49.5606 62.2667 49.6431 61.5308 49.8117 60.8123H51.5427Z" fill="#051E17"/>
<path d="M71.442 67.6167C71.442 70.9733 69.1038 73.0094 65.7623 73.0094C62.4207 73.0094 60.0825 70.993 60.0825 67.6167V60.9942C61.0676 60.7544 62.0793 60.6412 63.0928 60.6564C63.8104 60.6564 64.1865 60.9689 64.1865 61.5534V67.7474C64.1865 68.9772 64.7437 69.7182 65.7673 69.7182C66.7904 69.7182 67.3476 68.9772 67.3476 67.7474V60.8124H70.609C71.1859 60.8124 71.4516 61.0596 71.4516 61.5083L71.442 67.6167Z" fill="#051E17"/>
<path d="M73.2231 60.9943C74.2083 60.7545 75.2199 60.6408 76.2335 60.6565C76.9459 60.6565 77.3226 60.969 77.3226 61.5535V62.4256C77.6488 61.8499 78.1226 61.3726 78.6939 61.0421C79.2653 60.7117 79.9141 60.54 80.5739 60.5455C81.8481 60.5455 82.7613 61.0799 82.7613 61.7753C82.7613 62.6272 81.9334 63.5445 81.0202 64.1037C80.5867 63.8105 80.0726 63.6609 79.5503 63.6752C78.3911 63.6752 77.5934 64.5069 77.3226 65.8678V72.7623H74.0713C73.4939 72.7623 73.2282 72.5152 73.2282 72.0669L73.2231 60.9943Z" fill="#051E17"/>
<path d="M83.1826 57.698C83.1826 56.4682 84.0958 55.8179 85.3448 55.8179C86.4788 55.8179 87.5478 56.5138 87.5478 57.7633C87.5478 59.0134 86.6346 59.6434 85.3851 59.6434C84.2511 59.6485 83.1826 58.9581 83.1826 57.698ZM87.4122 68.9068C87.4122 69.5116 87.6582 69.7785 88.0843 69.7785H88.6717C88.8161 70.2125 88.8921 70.6668 88.8972 71.1243C88.8972 71.9711 87.8937 72.9137 86.3886 72.9137C84.7831 72.9137 83.293 71.9711 83.293 69.6225V60.9943C84.2782 60.7545 85.2898 60.6408 86.3034 60.6564C87.0158 60.6564 87.392 60.9689 87.392 61.5535L87.4122 68.9068Z" fill="#051E17"/>
<path d="M96.1974 63.9475C95.6609 63.9475 95.375 63.635 95.375 63.0049C95.3672 62.2667 95.4496 61.5303 95.6206 60.8123H103.222C103.483 60.7764 103.749 60.8215 103.983 60.9412C104.219 61.0613 104.411 61.25 104.536 61.4829C104.824 62.0053 105.021 62.5727 105.118 63.1609L100.528 69.5165H104.542C104.983 69.5165 105.229 69.7834 105.229 70.3684V72.7621H97.0355C96.7738 72.7976 96.5081 72.752 96.273 72.6314C96.038 72.5104 95.8455 72.3207 95.7209 72.0869C95.4345 71.5664 95.2393 71.0003 95.144 70.4135L99.8203 63.9475H96.1974Z" fill="#051E17"/>
<path d="M106.273 57.698C106.273 56.4682 107.186 55.8179 108.431 55.8179C109.569 55.8179 110.638 56.5138 110.638 57.7633C110.638 59.0134 109.725 59.6434 108.475 59.6434C107.341 59.6485 106.273 58.9581 106.273 57.698ZM110.503 68.9068C110.503 69.5116 110.749 69.7785 111.17 69.7785H111.752C111.896 70.2125 111.972 70.6668 111.978 71.1243C111.978 71.9711 110.974 72.9137 109.469 72.9137C107.868 72.9137 106.373 71.9711 106.373 69.6225V60.9943C107.359 60.7549 108.37 60.6417 109.384 60.6564C110.096 60.6564 110.473 60.9689 110.473 61.5535L110.503 68.9068Z" fill="#051E17"/>
<path d="M129.614 56.4275C130.191 56.4275 130.461 56.6746 130.461 57.1234V68.9117C130.461 69.5164 130.708 69.7834 131.129 69.7834H131.731C131.871 70.2183 131.946 70.6721 131.952 71.1291C131.952 71.976 130.949 72.9181 129.443 72.9181C128.833 72.9236 128.235 72.7418 127.73 72.398C127.224 72.0542 126.835 71.5645 126.613 70.9929C126.258 71.6115 125.746 72.1237 125.129 72.4781C124.511 72.8321 123.812 73.0157 123.101 73.0092C120.336 73.0092 118.224 70.7715 118.224 67.2838C118.224 63.0099 120.894 60.5251 123.678 60.5251C124.172 60.5016 124.666 60.5831 125.127 60.7649C125.588 60.9462 126.006 61.2237 126.352 61.5786V56.4275H129.614ZM126.363 64.1891C125.953 63.8411 125.428 63.6612 124.892 63.6851C123.387 63.6851 122.329 65.162 122.329 67.2134C122.329 69.0023 122.976 69.8943 124.245 69.8943C125.113 69.8943 125.941 69.2693 126.363 68.196V64.1891Z" fill="#051E17"/>
<path d="M132.092 66.8301C132.064 65.9975 132.206 65.1677 132.51 64.3926C132.814 63.6176 133.273 62.9134 133.86 62.3238C134.446 61.7347 135.146 61.2726 135.918 60.9666C136.689 60.6605 137.515 60.5174 138.344 60.5454C141.641 60.5454 143.623 62.4707 143.623 65.1318C143.624 65.8351 143.451 66.5277 143.121 67.1477C142.765 67.798 142.253 67.9996 141.204 67.9996H136.262C136.573 69.3854 137.687 70.1011 139.248 70.1011C140.188 70.1269 141.12 69.9193 141.962 69.4963C142.266 69.9667 142.451 70.5052 142.499 71.0639C142.499 71.7543 140.893 73.0094 138.289 73.0094C137.471 73.0393 136.656 72.9003 135.894 72.6011C135.131 72.3015 134.438 71.8482 133.857 71.2692C133.276 70.6897 132.82 69.9971 132.517 69.2335C132.213 68.47 132.069 67.6521 132.092 66.8301ZM136.217 65.7568H139.599C139.727 65.4936 139.789 65.2027 139.779 64.91C139.799 64.7217 139.778 64.5312 139.718 64.3517C139.658 64.1722 139.56 64.0079 139.431 63.8698C139.302 63.7317 139.145 63.6227 138.97 63.5509C138.796 63.4791 138.608 63.4459 138.42 63.4533C137.17 63.4533 136.372 64.3508 136.217 65.7619V65.7568Z" fill="#051E17"/>
<path d="M151.294 63.9475C150.757 63.9475 150.471 63.635 150.471 63.0049C150.463 62.2667 150.546 61.5303 150.717 60.8123H158.309C158.569 60.7764 158.835 60.8215 159.07 60.9412C159.305 61.0613 159.498 61.25 159.623 61.4829C159.912 62.0039 160.109 62.5718 160.205 63.1609L155.614 69.5165H159.628C160.069 69.5165 160.315 69.7834 160.315 70.3684V72.7621H152.117C151.855 72.7966 151.59 72.7511 151.355 72.63C151.12 72.5095 150.928 72.3203 150.802 72.0869C150.516 71.5664 150.321 71.0003 150.225 70.4135L154.901 63.9475H151.294Z" fill="#051E17"/>
<path d="M161.354 57.698C161.354 56.4682 162.267 55.8179 163.511 55.8179C164.65 55.8179 165.719 56.5138 165.719 57.7633C165.719 59.0134 164.806 59.6434 163.557 59.6434C162.428 59.6485 161.354 58.9581 161.354 57.698ZM165.584 68.9068C165.584 69.5116 165.829 69.7785 166.251 69.7785H166.853C166.998 70.2125 167.074 70.6668 167.079 71.1243C167.079 71.9711 166.075 72.9137 164.57 72.9137C162.97 72.9137 161.474 71.9711 161.474 69.6225V60.9943C162.46 60.7549 163.471 60.6417 164.485 60.6564C165.197 60.6564 165.573 60.9689 165.573 61.5535L165.584 68.9068Z" fill="#051E17"/>
<path d="M30.7503 15.6296H20.896V46.6907H30.7503V15.6296Z" fill="#051E17"/>
<path d="M13.6862 38.8283C12.9004 38.8702 12.129 38.6046 11.5338 38.0878C11.2654 37.8351 11.0547 37.5276 10.9162 37.1857C10.7776 36.8437 10.7144 36.4755 10.731 36.1069V0.0361328L0.866699 2.3948V36.8529C0.866699 40.0682 1.84178 42.6654 3.79188 44.6444C5.74199 46.6235 8.32261 47.6149 11.5338 47.6181C13.4955 47.5734 15.4312 47.156 17.2386 46.3883V37.9718C16.1034 38.4329 14.9061 38.7215 13.6862 38.8283Z" fill="#051E17"/>
<path d="M122.097 38.2944C121.543 38.473 120.978 38.6194 120.407 38.7326C120.114 38.7896 119.817 38.8214 119.518 38.8283C118.731 38.8693 117.959 38.6042 117.361 38.0878C117.094 37.8346 116.885 37.5263 116.747 37.1848C116.609 36.8428 116.547 36.4751 116.563 36.1069V0.0361328L106.734 2.3948V36.8529C106.734 40.0682 107.709 42.6654 109.659 44.6444C111.61 46.6235 114.185 47.6149 117.386 47.6181C119.919 47.5371 122.401 46.8821 124.646 45.703C123.161 43.5053 122.295 40.9454 122.138 38.2944" fill="#051E17"/>
<path d="M139.724 38.5462C139.175 38.7073 138.609 38.8007 138.038 38.8232C137.251 38.8642 136.478 38.5991 135.881 38.0827C135.613 37.8296 135.404 37.5212 135.267 37.1797C135.129 36.8377 135.066 36.47 135.083 36.1018V0.0361328L125.229 2.3948V36.8479C125.229 40.07 126.204 42.6691 128.154 44.6444C130.104 46.6203 132.679 47.6112 135.881 47.6181C138.417 47.5366 140.902 46.8803 143.151 45.6979L143.683 45.3956C141.907 43.4105 140.56 41.0789 139.724 38.5462Z" fill="#051E17"/>
<path d="M26.5909 0.0361104H26.5606C25.7955 0.00900194 25.0326 0.144452 24.3228 0.433671C23.6131 0.72289 22.9721 1.1593 22.4415 1.7144C21.4216 2.82019 20.8681 4.27963 20.896 5.78666V11.1743H27.2383C29.4129 11.1738 31.5467 10.5817 33.4134 9.46099C35.28 8.34024 36.8099 6.73265 37.8399 4.80891L40.3989 0.0361104H26.5909Z" fill="#051E17"/>
<path d="M68.6823 33.1687C68.6823 26.9041 67.1772 22.4337 64.2617 19.3391C61.3467 16.2446 58.2663 14.7024 54.0766 14.7024C50.1778 14.7024 47.4786 15.8364 44.97 18.1043V15.6297H35.1157V46.6857H44.9801C44.9801 46.6857 44.9801 30.7798 44.9801 30.7899C44.9801 26.5563 48.4922 23.114 52.0445 23.114C55.7824 23.114 58.9934 26.5563 58.9934 33.9802C58.9934 37.6746 57.3128 43.2081 53.946 46.6857H64.4826C67.1405 42.6765 68.5962 37.9848 68.6773 33.1687" fill="#051E17"/>
<path d="M94.3363 36.1069C93.0218 38.5024 90.8257 39.6986 87.7484 39.6954C86.1791 39.7249 84.6584 39.1495 83.4987 38.0878C82.2511 36.9178 81.4089 35.3778 81.095 33.6929H103.764V31.1728C103.68 26.2236 102.12 22.2437 99.0827 19.2332C97.6069 17.7499 95.847 16.5829 93.9088 15.8032C91.9711 15.0235 89.8955 14.6473 87.8085 14.6973C85.6582 14.6474 83.5193 15.0322 81.5198 15.8287C79.5202 16.6252 77.7003 17.8173 76.1681 19.334C73.0071 22.4285 71.4268 26.3681 71.4268 31.1526C71.4268 35.937 73.0071 39.8869 76.1681 43.0013C77.6934 44.5087 79.5042 45.6938 81.4932 46.4868C83.4822 47.2798 85.6091 47.6646 87.7484 47.6181C91.0451 47.7009 94.2987 46.8541 97.1409 45.1737C98.8422 44.123 100.298 42.7169 101.411 41.0508L94.3363 36.1069ZM83.7998 24.0413C84.9686 23.196 86.3734 22.7427 87.8135 22.7461C89.2032 22.7193 90.5627 23.1533 91.682 23.9808C92.8509 24.8964 93.6765 26.1825 94.0252 27.6297H81.2811C81.6788 26.178 82.5654 24.9099 83.7897 24.0413" fill="#051E17"/>
<path d="M179.276 38.8284C178.489 38.8693 177.716 38.6042 177.119 38.0878C176.866 37.8485 176.665 37.5595 176.53 37.2382C176.394 36.9174 176.327 36.5713 176.331 36.2229V15.6297L166.366 18.0035C163.878 15.8061 160.714 14.7057 156.873 14.7024C154.867 14.6738 152.878 15.0722 151.036 15.8714C149.194 16.6706 147.541 17.8524 146.186 19.3391C143.25 22.4336 141.782 26.3732 141.786 31.1577C141.789 35.9422 143.256 39.892 146.186 43.0065C147.545 44.4862 149.199 45.6616 151.041 46.456C152.882 47.2509 154.869 47.6467 156.873 47.6182C160.777 47.6182 163.98 46.4823 166.482 44.2109L167.882 42.6236C168.293 43.3586 168.8 44.0365 169.387 44.6394C171.337 46.6217 173.914 47.6131 177.119 47.6131C178.388 47.5956 179.649 47.4041 180.867 47.0438V38.5716C180.348 38.7188 179.815 38.8049 179.276 38.8284ZM166.441 31.3997C166.453 32.4266 166.261 33.4455 165.876 34.3971C165.492 35.3489 164.924 36.2146 164.204 36.9437C163.521 37.6612 162.701 38.2319 161.791 38.6199C160.882 39.0083 159.903 39.2062 158.916 39.2016C157.916 39.2329 156.922 39.0507 155.997 38.6668C155.074 38.2825 154.242 37.7058 153.557 36.974C152.162 35.4888 151.465 33.55 151.465 31.1577C151.384 29.0288 152.135 26.9525 153.557 25.3719C154.238 24.6333 155.069 24.0497 155.993 23.6603C156.917 23.2708 157.914 23.0846 158.916 23.114C159.913 23.1059 160.901 23.3051 161.818 23.6988C162.735 24.0926 163.561 24.6725 164.244 25.4022C164.962 26.1329 165.529 26.9988 165.913 27.9501C166.297 28.9015 166.49 29.9195 166.482 30.9461L166.441 31.3997Z" fill="#051E17"/>
</svg>
