<svg width="349" height="68" viewBox="0 0 349 68" fill="none" xmlns="http://www.w3.org/2000/svg">
<g clip-path="url(#clip0_79_188)">
<path d="M61.3147 0.522439L48.1368 28.9786C25.1765 36.7955 24.7884 20.888 9.77164 23.0577L0.941406 3.97935C27.0112 -5.4107 43.785 8.1023 61.3147 0.522439Z" fill="#051E17"/>
<path d="M45.027 35.7004L30.3167 67.4663L15.6064 35.7004H23.4887L30.3249 50.4964L37.1692 35.7004H45.027ZM49.4278 42.5693H54.135C54.135 42.5693 49.4686 44.2814 49.4114 48.674V64.3077H57.0485V35.7331H49.4278V42.5693ZM101.322 55.4285V42.1606H107.313V35.7331H101.335V28.1859H93.8078V35.7331H89.9586V42.1606H93.8078V55.4612C93.8078 58.978 94.5133 61.3875 95.9244 62.6896C97.3355 63.9917 99.3037 64.6401 101.829 64.6346C104.213 64.6346 106.064 64.305 107.382 63.6458V57.4961C106.184 57.932 104.918 58.1547 103.643 58.1539C102.107 58.1539 101.337 57.2386 101.335 55.408L101.322 55.4285ZM153.021 38.1521C151.252 39.969 150.148 42.3306 149.891 44.8534V35.7331H142.425V64.3077H149.899V51.7795C150.183 49.2227 151.406 46.8625 153.331 45.1558C155.293 43.3824 157.353 42.512 159.514 42.5447C160.65 42.5447 161.675 42.5638 162.59 42.6019V35.6227C161.587 35.5162 160.579 35.4617 159.571 35.4593C158.352 35.429 157.14 35.6528 156.012 36.1164C154.885 36.58 153.866 37.2733 153.021 38.1521ZM165.34 42.5693H170.068C170.068 42.5693 165.34 44.2977 165.34 48.7516V64.3077H172.982V35.7331H165.34V42.5693ZM323.128 48.8129L335.603 35.7372H326.095L316.533 45.9526V28.1859H309.002V64.3077H316.533V55.7921L318.732 53.4834L328.845 64.3077H338.022L323.128 48.8129ZM138.474 50.0388C138.457 52.9097 137.59 55.7114 135.983 58.0902C134.375 60.4691 132.1 62.3187 129.442 63.4056C126.785 64.4926 123.865 64.7682 121.051 64.1977C118.238 63.6272 115.656 62.2362 113.632 60.2002C111.608 58.1641 110.232 55.5742 109.678 52.7571C109.124 49.9401 109.417 47.0221 110.52 44.3712C111.622 41.7204 113.485 39.4554 115.873 37.8621C118.262 36.2688 121.068 35.4185 123.939 35.4184C127.803 35.4293 131.504 36.9736 134.229 39.712C136.955 42.4504 138.481 46.1589 138.474 50.0224V50.0388ZM130.955 50.047C130.955 45.5522 127.805 41.9441 123.923 41.9441C120.041 41.9441 116.895 45.5726 116.895 50.047C116.895 54.5213 120.041 58.1539 123.923 58.1539C127.805 58.1539 130.955 54.5254 130.955 50.047ZM80.8423 55.645C80.229 56.4168 79.4519 57.0426 78.5672 57.4772C77.6824 57.9118 76.7121 58.1444 75.7264 58.158C71.82 58.158 68.6492 54.5295 68.6492 50.051C68.6492 45.5726 71.82 41.9482 75.7264 41.9482C76.7082 41.962 77.6748 42.1926 78.5571 42.6235C79.4394 43.0544 80.2155 43.675 80.8301 44.4407L87.6458 41.5804C85.8532 39.0536 83.3042 37.1618 80.3665 36.1779C77.4288 35.194 74.2545 35.169 71.3017 36.1065C68.3489 37.044 65.7704 38.8955 63.9383 41.3937C62.1061 43.892 61.1152 46.9078 61.1085 50.0058C61.1018 53.1039 62.0796 56.1239 63.9009 58.6301C65.7222 61.1363 68.2927 62.9989 71.2414 63.9492C74.1901 64.8995 77.3645 64.8882 80.3064 63.9171C83.2483 62.946 85.8055 61.0652 87.609 58.5462L80.8423 55.645ZM343.67 35.7372C344.559 35.7372 345.428 35.4735 346.167 34.9796C346.906 34.4858 347.482 33.7838 347.822 32.9624C348.162 32.1411 348.251 31.2374 348.078 30.3655C347.905 29.4936 347.476 28.6927 346.848 28.0641C346.219 27.4354 345.418 27.0074 344.546 26.8339C343.675 26.6605 342.771 26.7495 341.949 27.0897C341.128 27.4299 340.426 28.006 339.932 28.7452C339.438 29.4843 339.175 30.3534 339.175 31.2424C339.172 31.8333 339.286 32.4191 339.51 32.9657C339.735 33.5122 340.066 34.0088 340.484 34.4265C340.902 34.8442 341.399 35.1748 341.946 35.399C342.493 35.6233 343.079 35.7369 343.67 35.7331V35.7372ZM343.67 35.0466C342.921 35.0417 342.19 34.8152 341.57 34.3956C340.949 33.976 340.467 33.3821 340.184 32.6888C339.901 31.9955 339.829 31.2339 339.978 30.4999C340.127 29.766 340.49 29.0926 341.021 28.5647C341.553 28.0369 342.228 27.6781 342.963 27.5338C343.698 27.3895 344.459 27.466 345.151 27.7537C345.842 28.0414 346.433 28.5274 346.849 29.1505C347.264 29.7735 347.486 30.5057 347.486 31.2546C347.476 32.2612 347.07 33.2234 346.356 33.9324C345.641 34.6415 344.676 35.0404 343.67 35.0425V35.0466ZM344.323 31.414C345.198 31.414 345.876 31.034 345.876 30.0696C345.876 29.0113 345.014 28.7702 344.131 28.7702H341.99V33.6736H342.681V31.4099H343.498L344.969 33.6736H345.786L344.323 31.414ZM342.689 30.7234V29.4567H344.001C344.528 29.4567 345.194 29.5507 345.194 30.0533C345.194 30.8337 344.127 30.7193 343.518 30.7193L342.689 30.7234ZM205.602 35.7331V64.3077H198.075V61.2962C196.113 63.7479 193.253 64.6959 190.381 64.6959C183.066 64.6959 177.133 58.1376 177.133 50.047C177.133 41.9563 183.066 35.4021 190.381 35.4021C193.18 35.4131 195.893 36.374 198.075 38.1276V35.7331H205.602ZM198.402 50.0347C198.402 45.5399 196.224 41.8623 191.533 41.8623C187.741 41.8623 184.664 45.5154 184.664 50.0347C184.664 54.554 187.741 58.2071 191.533 58.2071C196.224 58.2071 198.402 54.554 198.402 50.047V50.0347ZM270.519 35.7331V64.3077H262.992V61.2962C261.031 63.7479 258.17 64.6959 255.302 64.6959C247.983 64.6959 242.054 58.1376 242.054 50.047C242.054 41.9563 247.983 35.4021 255.302 35.4021C258.1 35.4137 260.811 36.3746 262.992 38.1276V35.7331H270.519ZM263.319 50.0347C263.319 45.5399 261.141 41.8623 256.45 41.8623C252.658 41.8623 249.581 45.5154 249.581 50.0347C249.581 54.554 252.658 58.2071 256.45 58.2071C261.141 58.2071 263.319 54.554 263.319 50.047V50.0347ZM218.596 28.1859V38.1276C220.777 36.3746 223.488 35.4137 226.286 35.4021C233.604 35.4021 239.533 41.9604 239.533 50.047C239.533 58.1335 233.604 64.6959 226.286 64.6959C223.426 64.6959 220.565 63.7438 218.596 61.2962V64.3077H211.069V28.1859H218.596ZM225.134 58.2071C228.926 58.2071 232.002 54.554 232.002 50.0347C232.002 45.5154 228.926 41.8623 225.134 41.8623C220.443 41.8623 218.261 45.5154 218.261 50.0347C218.261 54.554 220.443 58.2071 225.138 58.2071H225.134ZM292.801 35.4593C287.542 35.4593 284.726 37.7966 283.443 41.2658V35.7331H275.913V64.3077H283.443V48.3961C284.416 45.025 287.448 41.8869 290.517 41.8869C295.35 41.8869 296.196 45.1558 296.196 49.2134V64.3077H303.719V47.0068C303.719 40.6283 298.832 35.4593 292.801 35.4593Z" fill="#051E17"/>
</g>
<defs>
<clipPath id="clip0_79_188">
<rect width="347.734" height="67.0134" fill="white" transform="translate(0.606445 0.481689)"/>
</clipPath>
</defs>
</svg>
