<svg width="221" height="61" viewBox="0 0 221 61" fill="none" xmlns="http://www.w3.org/2000/svg">
<g clip-path="url(#clip0_79_191)">
<path d="M45.9526 1.33643L21.5275 40.5027H10.2258L0.414551 1.33643H12.9119L18.7364 24.1762L32.8474 1.33643H45.9526Z" fill="#051E17"/>
<path d="M55.6241 10.5963L54.5315 16.124H71.6577L69.8381 25.1779H52.6775L51.4819 31.2428H71.6234L69.6987 40.5027H38.6533L46.5056 1.33643H76.8764L74.9517 10.5963H55.6241Z" fill="#051E17"/>
<path d="M112.636 13.9307C112.636 10.0086 111.162 6.77927 108.389 4.58395C105.667 2.42499 101.819 1.33643 96.9824 1.33643H80.9831L73.1309 40.5027H84.1902L86.2361 30.241H91.784L97.5742 40.5208H109.379L102.653 28.6173C109.015 26.113 112.638 20.7913 112.638 13.9327L112.636 13.9307ZM90.138 10.6993H95.8757C99.7412 10.6993 101.545 11.9777 101.545 14.7244C101.545 19.9249 97.35 21.0135 93.8318 21.0135H88.0598L90.14 10.6993H90.138Z" fill="#051E17"/>
<path d="M144.723 27.4926C144.723 35.8033 137.564 41.1755 126.505 41.1755C120.593 41.1411 114.492 39.4305 110.974 36.805L110.124 36.183L114.752 27.4421L115.896 28.2884C119.016 30.5685 123.192 31.8812 127.318 31.8812C131.445 31.8812 133.733 30.7058 133.733 28.7892C133.733 27.2685 130.873 26.4747 127.856 25.6104L127.787 25.5922C125.135 24.849 122.118 23.9846 119.743 22.3951C116.865 20.4604 115.48 17.8349 115.48 14.3611C115.48 6.06864 122.568 0.712646 133.559 0.712646C138.828 0.712646 143.597 1.90421 146.975 4.06519L147.91 4.63472L143.594 13.3938L142.415 12.5819C139.919 10.9056 136.59 9.99072 133.088 9.99072C129.067 9.99072 126.466 11.2873 126.466 13.2908C126.448 14.9145 129.292 15.7102 132.586 16.6251L132.654 16.6595C135.254 17.4027 138.202 18.2307 140.541 19.7858C143.348 21.6519 144.719 24.1744 144.719 27.4906L144.723 27.4926Z" fill="#051E17"/>
<path d="M188.248 1.35498L183.792 23.7443C181.436 35.2844 174.71 41.1412 163.772 41.1412C153.858 41.1412 147.704 35.7509 147.704 27.0787C147.722 25.663 147.878 24.2634 148.154 22.8981L152.454 1.35498H163.514L159.111 23.2273C158.937 24.1604 158.834 25.1278 158.816 26.0952C158.816 29.7749 160.688 31.4855 164.693 31.4855C169.372 31.4855 171.8 28.9468 173.082 22.7446L177.382 1.357H188.252L188.248 1.35498Z" fill="#051E17"/>
<path d="M217.56 27.458C217.56 31.6224 215.757 35.0416 212.586 37.4429C209.413 39.8261 204.855 41.1752 199.325 41.1752C193.432 41.1408 187.331 39.4302 183.795 36.8047L182.944 36.1827L187.573 27.4418L188.716 28.288C191.837 30.5682 196.013 31.8809 200.139 31.8809C204.265 31.8809 206.554 30.7055 206.554 28.7889C206.554 27.2681 203.694 26.4744 200.676 25.61L200.608 25.5919C197.956 24.8487 194.939 23.9843 192.564 22.3948C189.686 20.4601 188.3 17.8346 188.3 14.3608C188.3 6.07035 195.391 0.714355 206.38 0.714355C211.649 0.714355 216.417 1.90592 219.796 4.0669L220.715 4.63643L216.399 13.3955L215.238 12.6179C212.723 10.9255 209.413 9.99243 205.911 9.99243C201.89 9.99243 199.289 11.289 199.289 13.2925C199.271 14.9162 202.114 15.712 205.408 16.6268C207.87 17.3014 210.938 18.1476 213.347 19.737C216.173 21.6193 217.56 24.1418 217.56 27.46V27.458Z" fill="#051E17"/>
<path d="M80.2797 57.8509H74.4652L72.8394 60.5208H69.7959L77.8743 48.0881H80.7361L83.8039 60.5208H80.9199L80.2797 57.8509ZM79.799 55.6617L78.7468 50.8489L75.8163 55.6617H79.799Z" fill="#051E17"/>
<path d="M93.9665 56.6637L96.1416 60.4969H93.0738L91.1047 57.0292H88.6549L87.9682 60.4969H85.062L87.5562 48.0642H92.6376C95.7276 48.0642 97.5129 49.4779 97.5129 51.9196C97.5129 54.2927 96.1618 56.0033 93.9644 56.6637H93.9665ZM94.6067 52.2165C94.6067 51.0068 93.7362 50.4372 92.272 50.4372H89.9838L89.0911 54.7491H91.5409C93.4636 54.7491 94.6087 53.8585 94.6087 52.2165H94.6067Z" fill="#051E17"/>
<path d="M102.594 50.4369H98.5894L99.07 48.0881H109.942L109.461 50.4369H105.478L103.465 60.5188H100.581L102.594 50.4369Z" fill="#051E17"/>
<path d="M111.499 48.0881H114.405L111.911 60.543H109.004L111.499 48.0881Z" fill="#051E17"/>
<path d="M114.199 59.3555L115.389 57.1198C116.603 57.964 118.045 58.3982 119.509 58.3982C121.11 58.3982 122.096 57.8509 122.096 56.938C122.096 54.9527 115.916 56.0251 115.916 52.0566C115.916 49.5018 118.16 47.8599 121.615 47.8599C123.285 47.8599 124.843 48.2254 125.919 48.9323L124.82 51.1458C123.813 50.5076 122.645 50.1642 121.433 50.1885C119.763 50.1885 118.778 50.8267 118.778 51.7173C118.755 53.747 124.958 52.6988 124.958 56.53C124.958 59.1071 122.669 60.751 119.212 60.751C117.152 60.7288 115.251 60.135 114.199 59.3595V59.3555Z" fill="#051E17"/>
<path d="M130.632 50.4369H126.627L127.108 48.0881H137.98L137.499 50.4369H133.516L131.503 60.5188H128.619L130.632 50.4369Z" fill="#051E17"/>
</g>
<defs>
<clipPath id="clip0_79_191">
<rect width="220.301" height="60.0328" fill="white" transform="translate(0.414551 0.714355)"/>
</clipPath>
</defs>
</svg>
